<?xml version="1.0" encoding="utf-8"?>
<!-- Generator: Adobe Illustrator 26.0.1, SVG Export Plug-In . SVG Version: 6.00 Build 0)  -->
<svg version="1.1"
	 id="svg2" xmlns:cc="http://creativecommons.org/ns#" xmlns:dc="http://purl.org/dc/elements/1.1/" xmlns:rdf="http://www.w3.org/1999/02/22-rdf-syntax-ns#" xmlns:svg="http://www.w3.org/2000/svg"
	 xmlns="http://www.w3.org/2000/svg" xmlns:xlink="http://www.w3.org/1999/xlink" x="0px" y="0px" viewBox="0 0 46.7 56.2"
	 style="enable-background:new 0 0 46.7 56.2;" xml:space="preserve">
<style type="text/css">
	.st0{clip-path:url(#SVGID_00000145742161387090468500000004924617467496946595_);}
	.st1{fill:#00A3E2;}
	.st2{fill:#1D1D1B;}
	.st3{fill:#222430;}
</style>
<g id="g10" transform="matrix(1.3333333,0,0,-1.3333333,0,800.028)">
	
		<text transform="matrix(0.75 0 0 -0.75 250.3746 185.5847)" class="st2" style="font-family:'Arial-BoldMT'; font-size:10.7423px;">8</text>
	
		<text transform="matrix(0.75 0 0 -0.75 255.4664 185.5847)" class="st2" style="font-family:'Arial-BoldMT'; font-size:10.7423px;">4</text>
	
		<text transform="matrix(0.75 0 0 -0.75 260.5828 185.5847)" class="st2" style="font-family:'Arial-BoldMT'; font-size:10.7423px;"> </text>
	
		<text transform="matrix(0.75 0 0 -0.75 262.4761 185.5847)" class="st2" style="font-family:'Arial-BoldMT'; font-size:10.7423px;">7</text>
	
		<text transform="matrix(0.75 0 0 -0.75 266.8186 185.5847)" class="st2" style="font-family:'Arial-BoldMT'; font-size:10.7423px;">4</text>
	
		<text transform="matrix(0.75 0 0 -0.75 271.9346 185.5847)" class="st2" style="font-family:'Arial-BoldMT'; font-size:10.7423px;"> </text>
	
		<text transform="matrix(0.75 0 0 -0.75 273.8279 185.5847)" class="st2" style="font-family:'Arial-BoldMT'; font-size:10.7423px;">5</text>
	
		<text transform="matrix(0.75 0 0 -0.75 278.7747 185.5847)" class="st2" style="font-family:'Arial-BoldMT'; font-size:10.7423px;">1</text>
	
		<text transform="matrix(0.75 0 0 -0.75 282.6257 185.5847)" class="st2" style="font-family:'Arial-BoldMT'; font-size:10.7423px;"> </text>
	<text transform="matrix(0.75 0 0 -0.75 284.519 185.5847)" class="st2" style="font-family:'Arial-BoldMT'; font-size:10.7423px;">6</text>
	
		<text transform="matrix(0.75 0 0 -0.75 288.8293 185.5847)" class="st2" style="font-family:'Arial-BoldMT'; font-size:10.7423px;">7</text>
	
		<text transform="matrix(0.75 0 0 -0.75 307.3036 185.5847)" class="st2" style="font-family:'Arial-BoldMT'; font-size:10.7423px;">3</text>
	
		<text transform="matrix(0.75 0 0 -0.75 312.2262 185.5847)" class="st2" style="font-family:'Arial-BoldMT'; font-size:10.7423px;">4</text>
	
		<text transform="matrix(0.75 0 0 -0.75 317.3422 185.5847)" class="st2" style="font-family:'Arial-BoldMT'; font-size:10.7423px;"> </text>
	
		<text transform="matrix(0.75 0 0 -0.75 319.2355 185.5847)" class="st2" style="font-family:'Arial-BoldMT'; font-size:10.7423px;">3</text>
	
		<text transform="matrix(0.75 0 0 -0.75 324.1581 185.5847)" class="st2" style="font-family:'Arial-BoldMT'; font-size:10.7423px;">6</text>
	
		<text transform="matrix(0.75 0 0 -0.75 329.1935 185.5847)" class="st2" style="font-family:'Arial-BoldMT'; font-size:10.7423px;"> </text>
	
		<text transform="matrix(0.75 0 0 -0.75 331.0868 185.5847)" class="st2" style="font-family:'Arial-BoldMT'; font-size:10.7423px;">4</text>
	
		<text transform="matrix(0.75 0 0 -0.75 336.2028 185.5847)" class="st2" style="font-family:'Arial-BoldMT'; font-size:10.7423px;">8</text>
	<g id="g16">
		<g>
			<defs>
				<rect id="SVGID_1_" x="-441.4" y="-34.1" width="1186.8" height="800"/>
			</defs>
			<clipPath id="SVGID_00000147908804647199769230000005094470264396261013_">
				<use xlink:href="#SVGID_1_"  style="overflow:visible;"/>
			</clipPath>
			<g id="g18" style="clip-path:url(#SVGID_00000147908804647199769230000005094470264396261013_);">
				<g id="g24" transform="translate(148.3506,376.2988)">
					<path id="path26" class="st1" d="M-293.1,66l2-2l12.3,12.3c3.1,3.2,5.1,7.5,5.1,12.3c0,9.6-7.8,17.4-17.4,17.4
						c-9.6,0-17.4-7.8-17.4-17.4c0-4.8,2-9.2,5.1-12.3c0.3-0.3,0.6-0.4,1-0.4c0.8,0,1.4,0.6,1.4,1.4c0,0.4-0.2,0.8-0.4,1
						c-2.6,2.6-4.3,6.3-4.3,10.3c0,8.1,6.5,14.6,14.6,14.6c8.1,0,14.6-6.6,14.6-14.6c0-4-1.6-7.7-4.3-10.3L-293.1,66z"/>
				</g>
				<g id="g28" transform="translate(159.1406,396.0361)">
					<path id="path30" class="st1" d="M-293.1,66c-0.2-0.1-0.4-0.1-0.6-0.2l-0.4-1.1c0.3,0,0.7,0.1,1,0.2c0.4,0.1,0.4,0.1,1,0.3v1
						C-292.7,66.1-292.7,66.1-293.1,66 M-307.7,70h4.1v3.7h-4.1V70z M-302.6,70h5.3l-1.6,3.7h-3.7V70z M-307.9,66
						c-0.6-0.2-1.3-0.4-1.9-0.7v1V70h1v3.7h-1v1.9h5l1,1h2.5l1-1h0.6c0.6,0,1.1-0.3,1.3-0.8l2.1-4.7h2.9l-2-5.4c-0.4,0-0.8,0-1.3,0
						c-0.1,0-0.1,0-0.2,0c-0.3,0-0.5,0.1-0.8,0.1l-0.1,0c-1.5,0.3-3,0.9-4.6,1.3C-304.1,66.6-305.9,66.6-307.9,66 M-293.1,63.8
						c0.4,0.1,0.4,0.1,1,0.3v-1c-0.6-0.2-0.6-0.2-1-0.3c-0.6-0.2-1.2-0.3-1.8-0.3c-0.5,0-1,0-1.6,0c-0.1,0-0.1,0-0.2,0
						c-0.3,0-0.5,0.1-0.8,0.1l-0.1,0c-1.5,0.3-3,0.9-4.6,1.3c-2,0.5-3.8,0.6-5.8-0.1c-0.6-0.2-1.3-0.4-1.9-0.7v1
						c0.7,0.2,1.3,0.5,1.9,0.7c1.5,0.5,2.8,0.5,4.2,0.4c0.5-0.1,1-0.2,1.6-0.3c1.6-0.4,3.3-1.1,5-1.4l0.1,0c0.2,0,0.4,0,0.6-0.1
						c0.1,0,0.1,0,0.2,0C-295.1,63.5-294.3,63.5-293.1,63.8"/>
				</g>
				<g id="g32" transform="translate(102.2026,398.9521)">
					<path id="path34" class="st1" d="M-293.1,66c0,2.4,2,4.4,4.4,4.4c2.4,0,4.4-2,4.4-4.4c0-2.4-2-4.4-4.4-4.4
						C-291.1,61.5-293.1,63.5-293.1,66 M-281.4,66c0,4-3.3,7.3-7.3,7.3c-4,0-7.3-3.3-7.3-7.3c0-4,3.3-7.3,7.3-7.3
						C-284.6,58.7-281.4,61.9-281.4,66 M-298.6,54.6c0,0.4-0.2,0.8-0.4,1c-2.6,2.6-4.3,6.3-4.3,10.3c0,8.1,6.6,14.6,14.6,14.6
						c8.1,0,14.6-6.6,14.6-14.6c0-4-1.6-7.7-4.3-10.3l-12.3-12.3l2-2l12.3,12.3c3.1,3.2,5.1,7.5,5.1,12.3c0,9.6-7.8,17.4-17.4,17.4
						c-9.6,0-17.4-7.8-17.4-17.4c0-4.8,2-9.2,5.1-12.3c0.3-0.3,0.6-0.4,1-0.4C-299.2,53.2-298.6,53.8-298.6,54.6 M-279.9,57.2
						c2.2,2.2,3.6,5.3,3.6,8.7c0,6.8-5.5,12.4-12.3,12.4c-6.8,0-12.4-5.5-12.4-12.4c0-3.4,1.4-6.5,3.6-8.7c0.3-0.3,0.6-0.4,1-0.4
						c0.8,0,1.4,0.6,1.4,1.4c0,0.4-0.2,0.8-0.4,1c-1.7,1.7-2.8,4.1-2.8,6.7c0,5.2,4.3,9.5,9.5,9.5c5.2,0,9.5-4.3,9.5-9.5
						c0-2.6-1.1-5-2.8-6.7l-12.3-12.3l2-2L-279.9,57.2z"/>
				</g>
				<g id="g36" transform="translate(179.5771,405.5244)">
					<path id="path38" class="st1" d="M-293.1,66c0.7,0,1.2,0.4,1.2,1.1c0,0.7-0.4,1.1-1.2,1.1h-1.2V66H-293.1z M-296,69.7h3.1
						c1.9,0,2.8-1.4,2.8-2.6c0-1.3-0.9-2.6-2.8-2.6h-1.4v-2.6h-1.7V69.7z"/>
				</g>
				<g id="g40" transform="translate(187.0381,404.8848)">
					<path id="path42" class="st1" d="M-293.1,66c-0.1,0.6-0.4,1-1,1c-0.6,0-0.9-0.4-1-1H-293.1z M-296.9,65.3c0,1.7,1.2,3,2.8,3
						c1.5,0,2.7-0.9,2.7-3.1v-0.4h-3.8c0.1-0.7,0.8-1,1.3-1c0.5,0,1,0.2,1.2,0.5l1.1-1.1c-0.7-0.7-1.5-1-2.4-1
						C-295.5,62.3-296.9,63.4-296.9,65.3"/>
				</g>
				<g id="g44" transform="translate(193.2764,403.7187)">
					<path id="path46" class="st1" d="M-293.1,66L-293.1,66c-0.4-0.2-1-0.4-1.5-0.4c-1.2,0-2.3,0.6-2.3,2.3v1.5h1.6v-1.5
						c0-0.6,0.5-0.9,1-0.9c0.4,0,0.9,0.1,1.2,0.4v2h1.6v-5.7h-1.6V66z"/>
				</g>
				<g id="g48" transform="translate(196.4639,407.0713)">
					<path id="path50" class="st1" d="M-293.1,66h1.6v-2.1h1.8V66h1.6v-5.7h-1.6v2.1h-1.8v-2.1h-1.6V66z"/>
				</g>
				<g id="g52" transform="translate(206.8525,404.2568)">
					<path id="path54" class="st1" d="M-293.1,66c0,0.9-0.4,1.5-1.2,1.5c-0.7,0-1.2-0.6-1.2-1.5c0-0.9,0.5-1.5,1.2-1.5
						C-293.5,64.4-293.1,65.1-293.1,66 M-297.2,66c0,1.7,1.2,2.9,2.9,2.9c1.7,0,2.9-1.2,2.9-2.9c0-1.8-1.2-3-2.9-3
						C-296,63-297.2,64.2-297.2,66"/>
				</g>
				<g id="g56" transform="translate(210.4209,408.7871)">
					<path id="path58" class="st1" d="M-293.1,66l0.9,0.8c0.2-0.3,0.5-0.7,1-0.7c0.7,0,0.9,0.4,1.1,0.7l0.8-0.8
						c-0.2-0.4-0.8-1.1-1.8-1.1C-292.2,64.8-292.8,65.5-293.1,66 M-293.8,64.2h1.6V61h0l2.2,3.2h1.4v-5.7h-1.6v3.2h0l-2.2-3.2h-1.4
						V64.2z"/>
				</g>
				<g id="g60" transform="translate(177.5479,393.6689)">
					<path id="path62" class="st1" d="M-293.1,66h-1.7v1.4h5.1l-0.5-1.4h-1.3v-4.2h-1.6V66z"/>
				</g>
				<g id="g64" transform="translate(184.6162,390.7754)">
					<path id="path66" class="st1" d="M-293.1,66c0.8,0,1.3,0.6,1.3,1.5c0,0.8-0.5,1.5-1.3,1.5c-0.8,0-1.3-0.7-1.3-1.5
						C-294.4,66.6-293.8,66-293.1,66 M-294.3,62.5h-1.6v7.7h1.6v-0.6h0c0.2,0.3,0.7,0.7,1.6,0.7c1.5,0,2.6-1.2,2.6-2.9
						c0-1.7-1.1-3-2.6-3c-0.9,0-1.3,0.4-1.6,0.7h0V62.5z"/>
				</g>
				<g id="g68" transform="translate(191.8193,391.5937)">
					<path id="path70" class="st1" d="M-293.1,66v0.2c-0.2,0-0.5,0.1-0.7,0.1c-0.8,0-1.1-0.3-1.1-0.7c0-0.4,0.3-0.6,0.8-0.6
						C-293.6,64.9-293.1,65.2-293.1,66 M-296.5,65.6c0,0.9,0.8,1.9,2.5,1.9c0.2,0,0.6,0,1-0.1v0.1c0,0.5-0.4,0.7-0.9,0.7
						c-0.4,0-0.9-0.1-1.3-0.4l-1,1c0.6,0.6,1.6,0.9,2.4,0.9c1.5,0,2.5-0.8,2.5-2.2v-3.6h-1.6v0.6h0c-0.3-0.5-0.8-0.7-1.5-0.7
						C-295.7,63.7-296.5,64.5-296.5,65.6"/>
				</g>
				<g id="g72" transform="translate(194.9268,395.0928)">
					<path id="path74" class="st1" d="M-293.1,66h1.6v-2.1h1.8V66h1.6v-5.7h-1.6v2.1h-1.8v-2.1h-1.6V66z"/>
				</g>
				<g id="g76" transform="translate(201.2334,392.2783)">
					<path id="path78" class="st1" d="M-293.1,66c0,1.7,1.1,2.9,2.8,2.9c0.7,0,1.5-0.1,2.2-0.8l-1-1c-0.3,0.3-0.6,0.4-1,0.4
						c-0.7,0-1.2-0.6-1.2-1.5s0.4-1.5,1.2-1.5c0.4,0,0.8,0.1,1,0.4l1-1c-0.7-0.6-1.4-0.8-2.2-0.8C-292,63-293.1,64.2-293.1,66"/>
				</g>
				<g id="g80" transform="translate(207.1572,395.0928)">
					<path id="path82" class="st1" d="M-293.1,66h4.9v-5.7h-1.6v4.2h-1.7v-4.2h-1.6V66z"/>
				</g>
				<g id="g84" transform="translate(217.3428,392.2783)">
					<path id="path86" class="st1" d="M-293.1,66c0,0.9-0.4,1.5-1.2,1.5c-0.7,0-1.2-0.6-1.2-1.5c0-0.9,0.5-1.5,1.2-1.5
						C-293.5,64.4-293.1,65.1-293.1,66 M-297.2,66c0,1.7,1.2,2.9,2.9,2.9c1.7,0,2.9-1.2,2.9-2.9c0-1.8-1.2-3-2.9-3
						C-296,63-297.2,64.2-297.2,66"/>
				</g>
				<g id="g88" transform="translate(223.0869,390.7754)">
					<path id="path90" class="st1" d="M-293.1,66c0.8,0,1.3,0.6,1.3,1.5c0,0.8-0.5,1.5-1.3,1.5c-0.8,0-1.3-0.7-1.3-1.5
						C-294.4,66.6-293.8,66-293.1,66 M-294.3,62.5h-1.6v7.7h1.6v-0.6h0c0.2,0.3,0.7,0.7,1.6,0.7c1.5,0,2.6-1.2,2.6-2.9
						c0-1.7-1.1-3-2.6-3c-0.9,0-1.3,0.4-1.6,0.7h0V62.5z"/>
				</g>
				<g id="g92" transform="translate(228.3506,393.6689)">
					<path id="path94" class="st1" d="M-293.1,66h-1.7v1.4h5.1l-0.5-1.4h-1.3v-4.2h-1.6V66z"/>
				</g>
				<g id="g96" transform="translate(106.9785,107.2695)">
					<path id="path98" class="st1" d="M-293.1,66c11.3,0,20.4,9.1,20.4,20.4c0,11.3-9.1,20.4-20.4,20.4s-20.4-9.1-20.4-20.4
						C-313.5,75.1-304.3,66-293.1,66"/>
				</g>
				<g id="g100" transform="translate(146.752,129.0732)">
					<path id="path102" class="st2" d="M-293.1,66c0.7,0,1.4,0.3,1.9,0.8l-0.6,0.6c-0.3-0.3-0.8-0.5-1.3-0.5c-1,0-1.8,0.9-1.8,2
						s0.7,2,1.8,2c0.5,0,0.9-0.2,1.3-0.5l0.6,0.6c-0.5,0.5-1.2,0.8-1.9,0.8c-1.6,0-2.8-1.2-2.8-2.9C-295.8,67.2-294.6,66-293.1,66
						 M-289.5,66l1.2,3.8h0l1.3-3.8h0.9l1.3,3.8h0l1.2-3.8h1l-1.8,5.6h-0.8l-1.4-4.1h0l-1.4,4.1h-0.8l-1.8-5.6H-289.5z M-280.6,66h1
						v2.3l2.1,3.3h-1.1l-1.4-2.4h0l-1.5,2.4h-1.1l2.1-3.3V66z M-276.7,66h1v2.5h0.8l1.8-2.5h1.2l-2.3,3l2,2.6h-1.1l-1.7-2.3h-0.7
						v2.3h-1V66z"/>
				</g>
				<g id="g104" transform="translate(146.0645,125.3613)">
					<path id="path106" class="st2" d="M-293.1,66c-1.2,0-2-0.7-2-1.6c0-0.5,0.3-1,0.8-1.2v0c-0.5-0.2-0.9-0.7-0.9-1.3
						c0-1,0.9-1.7,2.1-1.7c1.2,0,2.1,0.7,2.1,1.7c0,0.6-0.4,1.1-0.9,1.3v0c0.5,0.2,0.8,0.7,0.8,1.2C-291.1,65.2-291.9,66-293.1,66
						 M-293.1,63.5c-0.7,0-1,0.4-1,0.8c0,0.4,0.3,0.8,1,0.8s1-0.4,1-0.8C-292.1,63.9-292.4,63.5-293.1,63.5 M-293.1,62.7
						c0.7,0,1.1-0.4,1.1-0.9c0-0.4-0.4-0.9-1.1-0.9c-0.7,0-1.1,0.4-1.1,0.9C-294.2,62.3-293.8,62.7-293.1,62.7 M-288,60.2
						c1.3,0,2.1,0.9,2.1,2c0,1.2-0.9,1.9-1.8,1.9c-0.3,0-0.6-0.1-0.9-0.2l0,0l1.7,2.1L-288,66l-0.8-1c-0.9-1.1-1.3-1.8-1.3-2.7
						C-290.1,61.1-289.3,60.2-288,60.2 M-288,61c-0.7,0-1.1,0.5-1.1,1.1c0,0.6,0.4,1.1,1.1,1.1c0.7,0,1.1-0.5,1.1-1.1
						C-286.9,61.5-287.3,61-288,61 M-280.9,66c-1.2,0-2-0.7-2-1.6c0-0.5,0.3-1,0.8-1.2v0c-0.5-0.2-0.9-0.7-0.9-1.3
						c0-1,0.9-1.7,2.1-1.7c1.2,0,2.1,0.7,2.1,1.7c0,0.6-0.4,1.1-0.9,1.3v0c0.5,0.2,0.8,0.7,0.8,1.2C-279,65.2-279.7,66-280.9,66
						 M-280.9,63.5c-0.7,0-1,0.4-1,0.8c0,0.4,0.3,0.8,1,0.8c0.7,0,1-0.4,1-0.8C-279.9,63.9-280.3,63.5-280.9,63.5 M-280.9,62.7
						c0.7,0,1.1-0.4,1.1-0.9c0-0.4-0.4-0.9-1.1-0.9c-0.7,0-1.1,0.4-1.1,0.9C-282.1,62.3-281.7,62.7-280.9,62.7 M-273.8,60.2
						c1.4,0,2.2,1.1,2.2,2.9c0,1.8-0.8,2.9-2.2,2.9s-2.2-1.1-2.2-2.9C-275.9,61.3-275.2,60.2-273.8,60.2 M-273.8,61
						c-0.8,0-1.2,0.8-1.2,2s0.4,2,1.2,2c0.8,0,1.2-0.8,1.2-2S-273,61-273.8,61 M-266.6,60.2c1.4,0,2.2,1.1,2.2,2.9
						c0,1.8-0.8,2.9-2.2,2.9c-1.4,0-2.2-1.1-2.2-2.9C-268.7,61.3-267.9,60.2-266.6,60.2 M-266.6,61c-0.8,0-1.2,0.8-1.2,2
						s0.4,2,1.2,2c0.8,0,1.2-0.8,1.2-2S-265.8,61-266.6,61"/>
				</g>
				<g id="g108" transform="translate(195.1289,132.1436)">
					<path id="path110" class="st2" d="M-293.1,66v1.8h1c0.6,0,1.1-0.3,1.1-0.9c0-0.6-0.5-0.9-1.1-0.9H-293.1z M-293.1,65.2h1
						l1.5-2.2h1.1l-1.7,2.4v0c0.7,0.3,1.1,0.9,1.1,1.5c0,0.9-0.6,1.7-2,1.7h-2.1V63h1V65.2z M-286.3,62.9c0.9,0,1.5,0.4,1.7,0.8h0
						V63h0.8v2.9h-2.7l0.3-0.8h1.6c-0.1-0.8-0.8-1.3-1.6-1.3c-0.9,0-1.8,0.6-1.8,2.1c0,1.1,0.8,2,1.9,2c0.6,0,1.1-0.3,1.4-0.6
						l0.6,0.6c-0.5,0.5-1.2,0.8-2.1,0.8c-1.6,0-2.9-1.2-2.9-2.9C-288.9,64-287.7,62.9-286.3,62.9 M-282.3,63h2.3
						c1.2,0,1.9,0.8,1.9,1.6c0,0.7-0.4,1.2-1.1,1.5v0c0.4,0.2,0.6,0.6,0.6,1.1c0,0.7-0.6,1.4-1.6,1.4h-2V63z M-281.4,66.3v1.5h0.9
						c0.4,0,0.8-0.3,0.8-0.7c0-0.5-0.4-0.7-0.8-0.7H-281.4z M-281.4,63.8v1.7h1.2c0.6,0,1-0.4,1-0.9c0-0.5-0.4-0.9-1-0.9H-281.4z"/>
				</g>
				<g id="g112" transform="translate(195.7285,119.5732)">
					<path id="path114" class="st2" d="M-293.1,66c1.2,0,2.1,0.8,2.1,1.8c0,1-0.8,1.6-1.6,1.7v0l1.5,1.5v0.7h-3.6v-0.8h2.4l-1.4-1.4
						v-0.7c0.2,0,0.3,0,0.5,0c0.6,0,1.3-0.3,1.3-1c0-0.5-0.5-0.9-1.1-0.9c-0.5,0-0.9,0.2-1.3,0.5l-0.6-0.6
						C-294.6,66.2-293.9,66-293.1,66 M-288,71.7c-1.3,0-2.1-0.9-2.1-2c0-1.2,0.9-1.9,1.8-1.9c0.3,0,0.6,0.1,0.9,0.2l0,0l-1.7-2.1
						l1.1-0.1l0.8,1c0.9,1.1,1.3,1.8,1.3,2.7C-286,70.8-286.8,71.7-288,71.7 M-288.1,70.9c0.7,0,1.1-0.5,1.1-1.1
						c0-0.6-0.4-1.1-1.1-1.1s-1.1,0.5-1.1,1.1C-289.2,70.4-288.7,70.9-288.1,70.9 M-283.3,66h3l0.3,0.8h-1.3v4.8h-2v-0.8h1.1v-3.9
						h-1.1V66z M-277.5,66c1.3,0,2.2,0.9,2.2,1.9c0,1.2-1,1.8-1.9,1.8c-0.4,0-0.7-0.1-1-0.2h0l0.1,1.4h2.4l0.3,0.8h-3.5l-0.2-3.1
						l0.8-0.1c0.3,0.2,0.6,0.3,0.9,0.3c0.7,0,1.1-0.4,1.1-1c0-0.6-0.5-1-1.2-1c-0.5,0-0.9,0.2-1.3,0.5l-0.6-0.6
						C-278.9,66.2-278.3,66-277.5,66 M-272.5,71.7c-1.3,0-2.1-0.9-2.1-2c0-1.2,0.9-1.9,1.8-1.9c0.3,0,0.6,0.1,0.9,0.2l0,0l-1.7-2.1
						l1.1-0.1l0.8,1c0.9,1.1,1.3,1.8,1.3,2.7C-270.4,70.8-271.2,71.7-272.5,71.7 M-272.5,70.9c0.7,0,1.1-0.5,1.1-1.1
						c0-0.6-0.4-1.1-1.1-1.1c-0.7,0-1.1,0.5-1.1,1.1C-273.6,70.4-273.1,70.9-272.5,70.9 M-267.7,66h3l0.3,0.8h-1.3v4.8h-2v-0.8h1.1
						v-3.9h-1.1V66z M-262.4,71.7c-1.3,0-2.1-0.9-2.1-2c0-1.2,0.9-1.9,1.8-1.9c0.3,0,0.6,0.1,0.9,0.2l0,0l-1.7-2.1l1.1-0.1l0.8,1
						c0.9,1.1,1.3,1.8,1.3,2.7C-260.3,70.8-261.1,71.7-262.4,71.7 M-262.4,70.9c0.7,0,1.1-0.5,1.1-1.1c0-0.6-0.4-1.1-1.1-1.1
						s-1.1,0.5-1.1,1.1C-263.5,70.4-263,70.9-262.4,70.9 M-257.3,71.7c-1.3,0-2.1-0.9-2.1-2c0-1.2,0.9-1.9,1.8-1.9
						c0.3,0,0.6,0.1,0.9,0.2l0,0l-1.7-2.1l1.1-0.1l0.8,1c0.9,1.1,1.3,1.8,1.3,2.7C-255.2,70.8-256,71.7-257.3,71.7 M-257.3,70.9
						c0.7,0,1.1-0.5,1.1-1.1c0-0.6-0.4-1.1-1.1-1.1s-1.1,0.5-1.1,1.1C-258.4,70.4-258,70.9-257.3,70.9"/>
				</g>
				<g id="g116" transform="translate(252.3262,129.1689)">
					<path id="path118" class="st2" d="M-293.1,66h1v2.4h2.8V66h1v5.6h-1v-2.3h-2.8v2.3h-1V66z M-286.8,66h3.8v0.8h-2.8v1.6h1.7v0.8
						h-1.7v1.4h2.5l0.3,0.8h-3.7V66z M-282.2,66h1.1l1.4,2.1h0l1.4-2.1h1.2l-1.9,2.9l1.9,2.7h-1.1l-1.3-2h0l-1.3,2h-1.2l1.9-2.8
						L-282.2,66z"/>
				</g>
				<path id="path120" class="st2" d="M-39.2,189h1.2v-1.2h-1.2V189z M-40,185.6h0.8v1.5h1.2v-1.5h0.8v1.5h1v0.7h-1v1.2h1v0.7h-1
					v1.5H-38v-1.5h-1.2v1.5H-40v-1.5h-1V189h1v-1.2h-1v-0.7h1L-40,185.6z M-31.5,185.6l0.3,0.8h-2.6v0l1,1c0.9,0.9,1.3,1.4,1.3,2.2
					c0,0.9-0.7,1.6-1.9,1.6c-0.8,0-1.5-0.4-2-0.8l0.6-0.6c0.4,0.3,0.9,0.6,1.4,0.6c0.5,0,1-0.3,1-0.9c0-0.5-0.3-0.8-1.3-1.8
					l-1.4-1.4v-0.7H-31.5z M-29.8,185.6h1.1l2,4.9v0.7h-3.8v-0.8h2.7L-29.8,185.6z M-23.9,191.3c-1.3,0-2.1-0.9-2.1-2
					c0-1.2,0.9-1.9,1.8-1.9c0.3,0,0.6,0.1,0.9,0.2l0,0l-1.7-2.1l1.1-0.1l0.8,1c0.9,1.1,1.3,1.8,1.3,2.7
					C-21.8,190.3-22.6,191.3-23.9,191.3 M-23.9,190.5c0.7,0,1.1-0.5,1.1-1.1c0-0.6-0.4-1.1-1.1-1.1c-0.7,0-1.1,0.5-1.1,1.1
					C-25,189.9-24.6,190.5-23.9,190.5 M-20.5,185.6h0.9v3.2h0.9l0.3,0.8h-1.1v0.7c0,0.3,0.2,0.6,0.5,0.6c0.1,0,0.3,0,0.5-0.2
					l0.6,0.6c-0.3,0.2-0.7,0.4-1.1,0.4c-0.9,0-1.4-0.7-1.4-1.4v-0.7h-0.7v-0.8h0.7V185.6z M-16.2,185.5c0.6,0,1.1,0.2,1.4,0.6
					l-0.6,0.6c-0.2-0.2-0.5-0.3-0.8-0.3c-0.6,0-1.1,0.6-1.1,1.3c0,0.7,0.4,1.3,1.1,1.3c0.4,0,0.6-0.2,0.8-0.3l0.6,0.6
					c-0.4,0.4-0.9,0.6-1.4,0.6c-1.1,0-2-0.9-2-2.1C-18.2,186.4-17.3,185.5-16.2,185.5 M-13.3,185.6h1.1l2,4.9v0.7H-14v-0.8h2.7
					L-13.3,185.6z"/>
				<g id="g122" transform="translate(301.1338,129.1689)">
					<path id="path124" class="st2" d="M-293.1,66h1V68h1c1.3,0,2,0.8,2,1.8c0,0.9-0.7,1.8-2,1.8h-2V66z M-292.1,68.9v1.8h0.9
						c0.6,0,1.1-0.4,1.1-0.9c0-0.6-0.5-0.9-1.1-0.9H-292.1z M-286.9,66.6c-0.5,0-0.7,0.3-0.7,0.6c0,0.4,0.3,0.6,1,0.6
						c0.2,0,0.4,0,0.6-0.1v-0.2C-286,67-286.4,66.6-286.9,66.6 M-287.1,65.9c0.5,0,0.9,0.2,1.1,0.5h0V66h0.9v2.5
						c0,1-0.6,1.5-1.7,1.5c-0.6,0-1.2-0.2-1.6-0.6l0.6-0.6c0.2,0.2,0.6,0.3,1,0.3c0.5,0,0.8-0.3,0.8-0.7v-0.1
						c-0.3,0-0.6,0.1-0.8,0.1c-1.3,0-1.8-0.7-1.8-1.3C-288.5,66.4-287.9,65.9-287.1,65.9 M-284,66h0.9v2.7c0.2,0.3,0.6,0.5,0.9,0.5
						c0.4,0,0.7-0.2,0.7-0.8V66h0.9v2.6c0,0.9-0.6,1.5-1.4,1.5c-0.5,0-0.9-0.2-1.2-0.6h0v0.5h-0.9V66z M-279,66h0.9v3.2h0.8l0.3,0.8
						h-1v1.4h-0.9v-1.4h-0.7v-0.8h0.7V66z M-274.9,65.9c1.1,0,2,0.9,2,2.1c0,1.2-0.9,2.1-2,2.1c-1.1,0-2-0.9-2-2.1
						C-276.9,66.7-276,65.9-274.9,65.9 M-274.9,66.7c-0.6,0-1.1,0.5-1.1,1.3c0,0.7,0.4,1.3,1.1,1.3c0.6,0,1.1-0.5,1.1-1.3
						C-273.8,67.2-274.2,66.7-274.9,66.7 M-271.9,66h0.9v2.7c0.2,0.3,0.6,0.5,0.9,0.5c0.4,0,0.7-0.2,0.7-0.8V66h0.9v2.6
						c0,0.9-0.6,1.5-1.4,1.5c-0.5,0-0.9-0.2-1.2-0.6h0v0.5h-0.9V66z M-265.5,65.9c0.6,0,1.2,0.2,1.6,0.6l-0.6,0.6
						c-0.3-0.3-0.6-0.4-1-0.4c-0.5,0-1.1,0.3-1.1,1h2.9v0.2c0,1.5-0.9,2.2-1.9,2.2c-1.1,0-1.9-0.9-1.9-2.1
						C-267.5,66.6-266.6,65.9-265.5,65.9 M-266.5,68.3c0.1,0.5,0.4,0.9,1,0.9c0.5,0,0.9-0.4,0.9-0.9H-266.5z"/>
				</g>
				<g id="g126" transform="translate(304.5723,119.6689)">
					<path id="path128" class="st2" d="M-293.1,66l0.3,0.8h-2.6v0l1,1c0.9,0.9,1.3,1.4,1.3,2.2c0,0.9-0.7,1.6-1.9,1.6
						c-0.8,0-1.5-0.4-2-0.8l0.6-0.6c0.4,0.3,0.9,0.6,1.4,0.6c0.5,0,1-0.3,1-0.9c0-0.5-0.3-0.8-1.3-1.8l-1.4-1.4V66H-293.1z
						 M-289.9,71.6c-1.3,0-2.1-0.9-2.1-2c0-1.2,0.9-1.9,1.8-1.9c0.3,0,0.6,0.1,0.9,0.2l0,0L-291,66l1.1-0.1l0.8,1
						c0.9,1.1,1.3,1.8,1.3,2.7C-287.9,70.7-288.7,71.6-289.9,71.6 M-289.9,70.8c0.7,0,1.1-0.5,1.1-1.1c0-0.6-0.4-1.1-1.1-1.1
						c-0.7,0-1.1,0.5-1.1,1.1C-291,70.3-290.6,70.8-289.9,70.8 M-284.9,71.6c-1.3,0-2.1-0.9-2.1-2c0-1.2,0.9-1.9,1.8-1.9
						c0.3,0,0.6,0.1,0.9,0.2l0,0l-1.7-2.1l1.1-0.1l0.8,1c0.9,1.1,1.3,1.8,1.3,2.7C-282.8,70.7-283.6,71.6-284.9,71.6 M-284.9,70.8
						c0.7,0,1.1-0.5,1.1-1.1c0-0.6-0.4-1.1-1.1-1.1c-0.7,0-1.1,0.5-1.1,1.1C-286,70.3-285.5,70.8-284.9,70.8 M-279.1,65.9
						c0.7,0,1.4,0.3,1.9,0.8l-0.6,0.6c-0.3-0.3-0.8-0.5-1.3-0.5c-1,0-1.8,0.9-1.8,2c0,1.1,0.7,2,1.8,2c0.5,0,0.9-0.2,1.3-0.5
						l0.6,0.6c-0.5,0.5-1.2,0.8-1.9,0.8c-1.5,0-2.8-1.2-2.8-2.9C-281.8,67.1-280.6,65.9-279.1,65.9"/>
				</g>
				<g id="g130" transform="translate(349.6211,132.1436)">
					<path id="path132" class="st2" d="M-293.1,66v1.8h1c0.6,0,1.1-0.3,1.1-0.9c0-0.6-0.5-0.9-1.1-0.9H-293.1z M-293.1,65.2h1
						l1.5-2.2h1.1l-1.7,2.4v0c0.7,0.3,1.1,0.9,1.1,1.5c0,0.9-0.6,1.7-2,1.7h-2.1V63h1V65.2z M-287.2,65l0.8,2.2h0l0.8-2.2H-287.2z
						 M-288,63l0.5,1.3h2.2l0.5-1.3h1.1l-2.2,5.6h-0.8L-289,63H-288z M-282.8,63h3.6l0.3,0.8h-3v4.8h-1V63z"/>
				</g>
				<g id="g134" transform="translate(350.2129,119.5732)">
					<path id="path136" class="st2" d="M-293.1,66c1.3,0,2.1,0.9,2.1,1.9c0,1.2-1,1.8-1.9,1.8c-0.4,0-0.7-0.1-1-0.2h0l0.1,1.4h2.4
						l0.3,0.8h-3.5l-0.2-3.1l0.8-0.1c0.3,0.2,0.6,0.3,0.9,0.3c0.7,0,1.1-0.4,1.1-1c0-0.6-0.5-1-1.2-1c-0.5,0-0.9,0.2-1.3,0.5
						l-0.6-0.6C-294.6,66.2-293.9,66-293.1,66 M-287.8,66c1.4,0,2.2,1.1,2.2,2.9c0,1.8-0.8,2.9-2.2,2.9c-1.4,0-2.2-1.1-2.2-2.9
						C-289.9,67.1-289.1,66-287.8,66 M-287.8,66.8c-0.8,0-1.2,0.8-1.2,2s0.4,2,1.2,2s1.2-0.8,1.2-2S-287,66.8-287.8,66.8 M-281.1,66
						l0.3,0.8h-2.6v0l1,1c0.9,0.9,1.3,1.4,1.3,2.2c0,0.9-0.7,1.6-1.9,1.6c-0.8,0-1.5-0.4-2-0.8l0.6-0.6c0.4,0.3,0.9,0.6,1.4,0.6
						c0.5,0,1-0.3,1-0.9c0-0.5-0.3-0.8-1.3-1.8l-1.4-1.4V66H-281.1z M-277.5,66h0.9v1.3h0.6l0.3,0.8h-0.9v1.6h-0.9v-1.6h-1.6v0
						l1.5,3.5h-1l-1.5-3.6v-0.7h2.7V66z"/>
				</g>
				<g id="g138" transform="translate(506.9785,107.2695)">
					<path id="path140" class="st3" d="M-293.1,66c11.3,0,20.4,9.1,20.4,20.4c0,11.3-9.1,20.4-20.4,20.4c-11.3,0-20.4-9.1-20.4-20.4
						C-313.5,75.1-304.3,66-293.1,66"/>
				</g>
				<g id="g142" transform="translate(546.752,129.0732)">
					<path id="path144" class="st2" d="M-293.1,66c0.7,0,1.4,0.3,1.9,0.8l-0.6,0.6c-0.3-0.3-0.8-0.5-1.3-0.5c-1,0-1.8,0.9-1.8,2
						s0.7,2,1.8,2c0.5,0,0.9-0.2,1.3-0.5l0.6,0.6c-0.5,0.5-1.2,0.8-1.9,0.8c-1.6,0-2.8-1.2-2.8-2.9C-295.8,67.2-294.6,66-293.1,66
						 M-289.5,66l1.2,3.8h0l1.3-3.8h0.9l1.3,3.8h0l1.2-3.8h1l-1.8,5.6h-0.8l-1.4-4.1h0l-1.4,4.1h-0.8l-1.8-5.6H-289.5z M-280.6,66h1
						v2.3l2.1,3.3h-1.1l-1.4-2.4h0l-1.5,2.4h-1.1l2.1-3.3V66z M-276.7,66h1v2.5h0.8l1.8-2.5h1.2l-2.3,3l2,2.6h-1.1l-1.7-2.3h-0.7
						v2.3h-1V66z"/>
				</g>
				<g id="g146" transform="translate(602.1289,132.1436)">
					<path id="path148" class="st2" d="M-293.1,66v1.8h1c0.6,0,1.1-0.3,1.1-0.9c0-0.6-0.5-0.9-1.1-0.9H-293.1z M-293.1,65.2h1
						l1.5-2.2h1.2l-1.7,2.4v0c0.7,0.3,1.1,0.9,1.1,1.5c0,0.9-0.6,1.7-2,1.7h-2.1V63h1V65.2z M-286.3,62.9c0.9,0,1.5,0.4,1.7,0.8h0
						V63h0.8v2.9h-2.7l0.3-0.8h1.6c-0.1-0.8-0.8-1.3-1.6-1.3c-0.9,0-1.8,0.6-1.8,2.1c0,1.1,0.8,2,1.9,2c0.6,0,1.1-0.3,1.4-0.6
						l0.6,0.6c-0.5,0.5-1.2,0.8-2.1,0.8c-1.6,0-2.9-1.2-2.9-2.9C-288.9,64-287.7,62.9-286.3,62.9 M-282.3,63h2.3
						c1.2,0,1.9,0.8,1.9,1.6c0,0.7-0.4,1.2-1.1,1.5v0c0.4,0.2,0.6,0.6,0.6,1.1c0,0.7-0.6,1.4-1.6,1.4h-2V63z M-281.4,66.3v1.5h0.9
						c0.4,0,0.8-0.3,0.8-0.7c0-0.5-0.4-0.7-0.8-0.7H-281.4z M-281.4,63.8v1.7h1.2c0.6,0,1-0.4,1-0.9c0-0.5-0.4-0.9-1-0.9H-281.4z"/>
				</g>
				<g id="g150" transform="translate(308.5791,390.4102)">
					<path id="path152" class="st1" d="M-293.1,66l2-2l12.3,12.3c3.1,3.2,5.1,7.5,5.1,12.3c0,9.6-7.8,17.4-17.4,17.4
						c-9.6,0-17.4-7.8-17.4-17.4c0-4.8,2-9.2,5.1-12.3c0.3-0.3,0.6-0.4,1-0.4c0.8,0,1.4,0.6,1.4,1.4c0,0.4-0.2,0.8-0.4,1
						c-2.6,2.6-4.3,6.3-4.3,10.3c0,8.1,6.5,14.6,14.6,14.6c8.1,0,14.6-6.6,14.6-14.6c0-4-1.6-7.7-4.3-10.3L-293.1,66z"/>
				</g>
				<g id="g154" transform="translate(294.3506,378.3486)">
					<path id="path156" class="st1" d="M-293.1,66c0.7,0,1.2,0.4,1.2,1.1c0,0.7-0.4,1.1-1.2,1.1h-1.2V66H-293.1z M-296,69.7h3.1
						c1.9,0,2.8-1.4,2.8-2.6c0-1.3-0.9-2.6-2.8-2.6h-1.4v-2.6h-1.7V69.7z"/>
				</g>
				<g id="g158" transform="translate(301.8115,377.709)">
					<path id="path160" class="st1" d="M-293.1,66c-0.1,0.6-0.4,1-1,1c-0.6,0-0.9-0.4-1-1H-293.1z M-296.9,65.3c0,1.7,1.2,3,2.8,3
						c1.5,0,2.7-0.9,2.7-3.1v-0.4h-3.8c0.1-0.7,0.8-1,1.3-1c0.5,0,1,0.2,1.2,0.5l1.1-1.1c-0.7-0.7-1.5-1-2.4-1
						C-295.5,62.3-296.9,63.4-296.9,65.3"/>
				</g>
				<g id="g162" transform="translate(308.0508,376.543)">
					<path id="path164" class="st1" d="M-293.1,66L-293.1,66c-0.4-0.2-1-0.4-1.5-0.4c-1.2,0-2.3,0.7-2.3,2.3v1.5h1.6v-1.5
						c0-0.5,0.5-0.9,1-0.9c0.4,0,0.9,0.1,1.2,0.4v2h1.6v-5.7h-1.6V66z"/>
				</g>
				<g id="g166" transform="translate(311.2383,379.8965)">
					<path id="path168" class="st1" d="M-293.1,66h1.6v-2.1h1.9V66h1.6v-5.7h-1.6v2.1h-1.9v-2.1h-1.6V66z"/>
				</g>
				<g id="g170" transform="translate(321.626,377.0811)">
					<path id="path172" class="st1" d="M-293.1,66c0,0.9-0.4,1.5-1.2,1.5c-0.7,0-1.2-0.6-1.2-1.5c0-0.9,0.5-1.5,1.2-1.5
						C-293.5,64.4-293.1,65.1-293.1,66 M-297.2,66c0,1.7,1.2,2.9,2.9,2.9c1.7,0,2.9-1.2,2.9-2.9c0-1.8-1.2-3-2.9-3
						C-296,63-297.2,64.2-297.2,66"/>
				</g>
				<g id="g174" transform="translate(325.1953,381.6123)">
					<path id="path176" class="st1" d="M-293.1,66l0.9,0.8c0.2-0.3,0.5-0.7,1-0.7c0.7,0,0.9,0.4,1.1,0.7l0.8-0.8
						c-0.2-0.4-0.8-1.1-1.9-1.1C-292.2,64.8-292.8,65.5-293.1,66 M-293.8,64.2h1.6V61h0l2.2,3.2h1.4v-5.7h-1.6v3.2h0l-2.2-3.2h-1.4
						V64.2z"/>
				</g>
				<g id="g178" transform="translate(284.5098,366.4941)">
					<path id="path180" class="st1" d="M-293.1,66h-1.7v1.4h5.1l-0.5-1.4h-1.3v-4.2h-1.6V66z"/>
				</g>
				<g id="g182" transform="translate(291.5781,363.6006)">
					<path id="path184" class="st1" d="M-293.1,66c0.8,0,1.3,0.6,1.3,1.5c0,0.8-0.5,1.5-1.3,1.5c-0.8,0-1.3-0.6-1.3-1.5
						C-294.4,66.6-293.8,66-293.1,66 M-294.3,62.5h-1.6v7.7h1.6v-0.6h0c0.2,0.3,0.7,0.7,1.6,0.7c1.5,0,2.6-1.2,2.6-2.9
						c0-1.7-1.1-3-2.6-3c-0.9,0-1.3,0.4-1.6,0.7h0V62.5z"/>
				</g>
				<g id="g186" transform="translate(298.7812,364.4189)">
					<path id="path188" class="st1" d="M-293.1,66v0.2c-0.2,0-0.5,0.1-0.7,0.1c-0.8,0-1.1-0.3-1.1-0.7c0-0.4,0.3-0.7,0.8-0.6
						C-293.6,64.9-293.1,65.2-293.1,66 M-296.5,65.6c0,0.9,0.8,1.9,2.5,1.9c0.2,0,0.7,0,1-0.1v0.1c0,0.5-0.4,0.7-0.9,0.7
						c-0.4,0-0.9-0.1-1.3-0.4l-1,1c0.7,0.6,1.6,0.9,2.4,0.9c1.5,0,2.5-0.8,2.5-2.2v-3.6h-1.6v0.6h0c-0.3-0.5-0.8-0.7-1.5-0.7
						C-295.7,63.7-296.5,64.5-296.5,65.6"/>
				</g>
				<g id="g190" transform="translate(301.8906,367.918)">
					<path id="path192" class="st1" d="M-293.1,66h1.6v-2.1h1.9V66h1.6v-5.7h-1.6v2.1h-1.9v-2.1h-1.6V66z"/>
				</g>
				<g id="g194" transform="translate(308.1953,365.1035)">
					<path id="path196" class="st1" d="M-293.1,66c0,1.7,1.1,2.9,2.8,2.9c0.7,0,1.5-0.1,2.2-0.8l-1-1c-0.3,0.3-0.6,0.4-1,0.4
						c-0.7,0-1.2-0.6-1.2-1.5s0.4-1.5,1.2-1.5c0.4,0,0.8,0.1,1,0.4l1-1c-0.6-0.6-1.4-0.8-2.2-0.8C-292,63-293.1,64.2-293.1,66"/>
				</g>
				<g id="g198" transform="translate(314.1191,367.918)">
					<path id="path200" class="st1" d="M-293.1,66h4.9v-5.7h-1.6v4.2h-1.7v-4.2h-1.6V66z"/>
				</g>
				<g id="g202" transform="translate(324.3057,365.1035)">
					<path id="path204" class="st1" d="M-293.1,66c0,0.9-0.4,1.5-1.2,1.5c-0.7,0-1.2-0.6-1.2-1.5c0-0.9,0.5-1.5,1.2-1.5
						C-293.5,64.4-293.1,65.1-293.1,66 M-297.2,66c0,1.7,1.2,2.9,2.9,2.9c1.7,0,2.9-1.2,2.9-2.9c0-1.8-1.2-3-2.9-3
						C-296,63-297.2,64.2-297.2,66"/>
				</g>
				<g id="g206" transform="translate(330.0508,363.6006)">
					<path id="path208" class="st1" d="M-293.1,66c0.8,0,1.3,0.6,1.3,1.5c0,0.8-0.5,1.5-1.3,1.5c-0.8,0-1.3-0.6-1.3-1.5
						C-294.4,66.6-293.8,66-293.1,66 M-294.3,62.5h-1.6v7.7h1.6v-0.6h0c0.2,0.3,0.7,0.7,1.6,0.7c1.5,0,2.6-1.2,2.6-2.9
						c0-1.7-1.1-3-2.6-3c-0.9,0-1.3,0.4-1.6,0.7h0V62.5z"/>
				</g>
				<g id="g210" transform="translate(335.3125,366.4941)">
					<path id="path212" class="st1" d="M-293.1,66h-1.7v1.4h5.1l-0.5-1.4h-1.3v-4.2h-1.6V66z"/>
				</g>
				<g id="g214" transform="translate(319.3691,410.1172)">
					<path id="path216" class="st1" d="M-293.1,66c-0.2-0.1-0.4-0.1-0.6-0.2l-0.4-1.1c0.3,0,0.7,0.1,1,0.2c0.4,0.1,0.4,0.1,1,0.3v1
						C-292.7,66.1-292.7,66.1-293.1,66 M-307.7,70h4.1v3.7h-4.1V70z M-302.6,70h5.3l-1.6,3.7h-3.7V70z M-307.9,66
						c-0.6-0.2-1.3-0.4-1.9-0.7v1V70h1v3.7h-1v1.9h5l1,1h2.5l1-1h0.6c0.6,0,1.1-0.3,1.3-0.8l2.1-4.7h2.9l-2-5.4c-0.4,0-0.8,0-1.3,0
						c-0.1,0-0.1,0-0.2,0c-0.3,0-0.5,0.1-0.8,0.1l-0.1,0c-1.5,0.3-3,0.9-4.6,1.3C-304.1,66.6-305.9,66.6-307.9,66 M-293.1,63.8
						c0.4,0.1,0.4,0.1,1,0.3v-1c-0.6-0.2-0.6-0.2-1-0.3c-0.6-0.2-1.2-0.3-1.8-0.3c-0.5,0-1,0-1.6,0c-0.1,0-0.1,0-0.2,0
						c-0.3,0-0.5,0.1-0.8,0.1l-0.1,0c-1.5,0.3-3,0.9-4.6,1.3c-2,0.5-3.8,0.6-5.8-0.1c-0.6-0.2-1.3-0.4-1.9-0.7v1
						c0.7,0.2,1.3,0.5,1.9,0.7c1.5,0.5,2.8,0.5,4.2,0.4c0.5-0.1,1-0.2,1.6-0.3c1.7-0.4,3.3-1.1,5-1.4l0.1,0c0.2,0,0.4,0,0.6-0.1
						c0.1,0,0.1,0,0.2,0C-295.1,63.5-294.3,63.5-293.1,63.8"/>
				</g>
				<g id="g218" transform="translate(148.3506,494.0029)">
					<path id="path220" class="st1" d="M-293.1,66l2-2l12.3,12.3c3.1,3.2,5.1,7.5,5.1,12.3c0,9.6-7.8,17.4-17.4,17.4
						c-9.6,0-17.4-7.8-17.4-17.4c0-4.8,2-9.2,5.1-12.3c0.3-0.3,0.6-0.4,1-0.4c0.8,0,1.4,0.6,1.4,1.4c0,0.4-0.2,0.8-0.4,1
						c-2.6,2.6-4.3,6.3-4.3,10.3c0,8.1,6.5,14.6,14.6,14.6c8.1,0,14.6-6.6,14.6-14.6c0-4-1.6-7.7-4.3-10.3L-293.1,66z"/>
				</g>
				<g id="g222" transform="translate(159.1406,513.7402)">
					<path id="path224" class="st1" d="M-293.1,66c-0.2-0.1-0.4-0.1-0.6-0.2l-0.4-1.1c0.3,0,0.7,0.1,1,0.2c0.4,0.1,0.4,0.1,1,0.3v1
						C-292.7,66.1-292.7,66.1-293.1,66 M-307.7,70h4.1v3.7h-4.1V70z M-302.6,70h5.3l-1.6,3.7h-3.7V70z M-307.9,66
						c-0.6-0.2-1.3-0.4-1.9-0.7v1V70h1v3.7h-1v1.9h5l1,1h2.5l1-1h0.6c0.6,0,1.1-0.3,1.3-0.8l2.1-4.7h2.9l-2-5.4c-0.4,0-0.8,0-1.3,0
						c-0.1,0-0.1,0-0.2,0c-0.3,0-0.5,0.1-0.8,0.1l-0.1,0c-1.5,0.3-3,0.9-4.6,1.3C-304.1,66.6-305.9,66.6-307.9,66 M-293.1,63.8
						c0.4,0.1,0.4,0.1,1,0.3v-1c-0.6-0.2-0.6-0.2-1-0.3c-0.6-0.2-1.2-0.3-1.8-0.3c-0.5,0-1,0-1.6,0c-0.1,0-0.1,0-0.2,0
						c-0.3,0-0.5,0.1-0.8,0.1l-0.1,0c-1.5,0.3-3,0.9-4.6,1.3c-2,0.5-3.8,0.6-5.8-0.1c-0.6-0.2-1.3-0.4-1.9-0.7v1
						c0.7,0.2,1.3,0.5,1.9,0.7c1.5,0.5,2.8,0.5,4.2,0.4c0.5-0.1,1-0.2,1.6-0.3c1.6-0.4,3.3-1.1,5-1.4l0.1,0c0.2,0,0.4,0,0.6-0.1
						c0.1,0,0.1,0,0.2,0C-295.1,63.5-294.3,63.5-293.1,63.8"/>
				</g>
				<g id="g226" transform="translate(179.5771,523.2285)">
					<path id="path228" class="st1" d="M-293.1,66c0.7,0,1.2,0.4,1.2,1.1c0,0.7-0.4,1.1-1.2,1.1h-1.2V66H-293.1z M-296,69.7h3.1
						c1.9,0,2.8-1.4,2.8-2.6c0-1.3-0.9-2.6-2.8-2.6h-1.4v-2.6h-1.7V69.7z"/>
				</g>
				<g id="g230" transform="translate(187.0381,522.5889)">
					<path id="path232" class="st1" d="M-293.1,66c-0.1,0.6-0.4,1-1,1c-0.6,0-0.9-0.4-1-1H-293.1z M-296.9,65.3c0,1.7,1.2,3,2.8,3
						c1.5,0,2.7-0.9,2.7-3.1v-0.4h-3.8c0.1-0.7,0.8-1,1.3-1c0.5,0,1,0.2,1.2,0.5l1.1-1.1c-0.7-0.7-1.5-1-2.4-1
						C-295.5,62.3-296.9,63.4-296.9,65.3"/>
				</g>
				<g id="g234" transform="translate(193.2764,521.4229)">
					<path id="path236" class="st1" d="M-293.1,66L-293.1,66c-0.4-0.2-1-0.4-1.5-0.4c-1.2,0-2.3,0.6-2.3,2.3v1.5h1.6v-1.5
						c0-0.6,0.5-0.9,1-0.9c0.4,0,0.9,0.1,1.2,0.4v2h1.6v-5.7h-1.6V66z"/>
				</g>
				<g id="g238" transform="translate(196.4639,524.7754)">
					<path id="path240" class="st1" d="M-293.1,66h1.6v-2.1h1.8V66h1.6v-5.7h-1.6v2.1h-1.8v-2.1h-1.6V66z"/>
				</g>
				<g id="g242" transform="translate(206.8525,521.9609)">
					<path id="path244" class="st1" d="M-293.1,66c0,0.9-0.4,1.5-1.2,1.5c-0.7,0-1.2-0.6-1.2-1.5c0-0.9,0.5-1.5,1.2-1.5
						C-293.5,64.4-293.1,65.1-293.1,66 M-297.2,66c0,1.7,1.2,2.9,2.9,2.9c1.7,0,2.9-1.2,2.9-2.9c0-1.8-1.2-3-2.9-3
						C-296,63-297.2,64.2-297.2,66"/>
				</g>
				<g id="g246" transform="translate(210.4209,526.4912)">
					<path id="path248" class="st1" d="M-293.1,66l0.9,0.8c0.2-0.3,0.5-0.7,1-0.7c0.7,0,0.9,0.4,1.1,0.7l0.8-0.8
						c-0.2-0.4-0.8-1.1-1.8-1.1C-292.2,64.8-292.8,65.5-293.1,66 M-293.8,64.2h1.6V61h0l2.2,3.2h1.4v-5.7h-1.6v3.2h0l-2.2-3.2h-1.4
						V64.2z"/>
				</g>
				<g id="g250" transform="translate(177.5479,511.373)">
					<path id="path252" class="st1" d="M-293.1,66h-1.7v1.4h5.1l-0.5-1.4h-1.3v-4.2h-1.6V66z"/>
				</g>
				<g id="g254" transform="translate(184.6162,508.4795)">
					<path id="path256" class="st1" d="M-293.1,66c0.8,0,1.3,0.6,1.3,1.5c0,0.8-0.5,1.5-1.3,1.5c-0.8,0-1.3-0.7-1.3-1.5
						C-294.4,66.6-293.8,66-293.1,66 M-294.3,62.5h-1.6v7.7h1.6v-0.6h0c0.2,0.3,0.7,0.7,1.6,0.7c1.5,0,2.6-1.2,2.6-2.9
						c0-1.7-1.1-3-2.6-3c-0.9,0-1.3,0.4-1.6,0.7h0V62.5z"/>
				</g>
				<g id="g258" transform="translate(191.8193,509.2979)">
					<path id="path260" class="st1" d="M-293.1,66v0.2c-0.2,0-0.5,0.1-0.7,0.1c-0.8,0-1.1-0.3-1.1-0.7c0-0.4,0.3-0.6,0.8-0.6
						C-293.6,64.9-293.1,65.2-293.1,66 M-296.5,65.6c0,0.9,0.8,1.9,2.5,1.9c0.2,0,0.6,0,1-0.1v0.1c0,0.5-0.4,0.7-0.9,0.7
						c-0.4,0-0.9-0.1-1.3-0.4l-1,1c0.6,0.6,1.6,0.9,2.4,0.9c1.5,0,2.5-0.8,2.5-2.2v-3.6h-1.6v0.6h0c-0.3-0.5-0.8-0.7-1.5-0.7
						C-295.7,63.7-296.5,64.5-296.5,65.6"/>
				</g>
				<g id="g262" transform="translate(194.9268,512.7969)">
					<path id="path264" class="st1" d="M-293.1,66h1.6v-2.1h1.8V66h1.6v-5.7h-1.6v2.1h-1.8v-2.1h-1.6V66z"/>
				</g>
				<g id="g266" transform="translate(201.2334,509.9824)">
					<path id="path268" class="st1" d="M-293.1,66c0,1.7,1.1,2.9,2.8,2.9c0.7,0,1.5-0.1,2.2-0.8l-1-1c-0.3,0.3-0.6,0.4-1,0.4
						c-0.7,0-1.2-0.6-1.2-1.5s0.4-1.5,1.2-1.5c0.4,0,0.8,0.1,1,0.4l1-1c-0.7-0.6-1.4-0.8-2.2-0.8C-292,63-293.1,64.2-293.1,66"/>
				</g>
				<g id="g270" transform="translate(207.1572,512.7969)">
					<path id="path272" class="st1" d="M-293.1,66h4.9v-5.7h-1.6v4.2h-1.7v-4.2h-1.6V66z"/>
				</g>
				<g id="g274" transform="translate(217.3428,509.9824)">
					<path id="path276" class="st1" d="M-293.1,66c0,0.9-0.4,1.5-1.2,1.5c-0.7,0-1.2-0.6-1.2-1.5c0-0.9,0.5-1.5,1.2-1.5
						C-293.5,64.4-293.1,65.1-293.1,66 M-297.2,66c0,1.7,1.2,2.9,2.9,2.9c1.7,0,2.9-1.2,2.9-2.9c0-1.8-1.2-3-2.9-3
						C-296,63-297.2,64.2-297.2,66"/>
				</g>
				<g id="g278" transform="translate(223.0869,508.4795)">
					<path id="path280" class="st1" d="M-293.1,66c0.8,0,1.3,0.6,1.3,1.5c0,0.8-0.5,1.5-1.3,1.5c-0.8,0-1.3-0.7-1.3-1.5
						C-294.4,66.6-293.8,66-293.1,66 M-294.3,62.5h-1.6v7.7h1.6v-0.6h0c0.2,0.3,0.7,0.7,1.6,0.7c1.5,0,2.6-1.2,2.6-2.9
						c0-1.7-1.1-3-2.6-3c-0.9,0-1.3,0.4-1.6,0.7h0V62.5z"/>
				</g>
				<g id="g282" transform="translate(228.3506,511.373)">
					<path id="path284" class="st1" d="M-293.1,66h-1.7v1.4h5.1l-0.5-1.4h-1.3v-4.2h-1.6V66z"/>
				</g>
				<g id="g286" transform="translate(308.5791,494.0029)">
					<path id="path288" class="st1" d="M-293.1,66l2-2l12.3,12.3c3.1,3.2,5.1,7.5,5.1,12.3c0,9.6-7.8,17.4-17.4,17.4
						c-9.6,0-17.4-7.8-17.4-17.4c0-4.8,2-9.2,5.1-12.3c0.3-0.3,0.6-0.4,1-0.4c0.8,0,1.4,0.6,1.4,1.4c0,0.4-0.2,0.8-0.4,1
						c-2.6,2.6-4.3,6.3-4.3,10.3c0,8.1,6.5,14.6,14.6,14.6c8.1,0,14.6-6.6,14.6-14.6c0-4-1.6-7.7-4.3-10.3L-293.1,66z"/>
				</g>
				<g id="g290" transform="translate(319.3691,513.71)">
					<path id="path292" class="st1" d="M-293.1,66c-0.2-0.1-0.4-0.1-0.6-0.2l-0.4-1.1c0.3,0,0.7,0.1,1,0.2c0.4,0.1,0.4,0.1,1,0.3v1
						C-292.7,66.1-292.7,66.1-293.1,66 M-307.7,70h4.1v3.7h-4.1V70z M-302.6,70h5.3l-1.6,3.7h-3.7V70z M-307.9,66
						c-0.6-0.2-1.3-0.4-1.9-0.7v1V70h1v3.7h-1v1.9h5l1,1h2.5l1-1h0.6c0.6,0,1.1-0.3,1.3-0.8l2.1-4.7h2.9l-2-5.4c-0.4,0-0.8,0-1.3,0
						c-0.1,0-0.1,0-0.2,0c-0.3,0-0.5,0.1-0.8,0.1l-0.1,0c-1.5,0.3-3,0.9-4.6,1.3C-304.1,66.6-305.9,66.6-307.9,66 M-293.1,63.8
						c0.4,0.1,0.4,0.1,1,0.3v-1c-0.6-0.2-0.6-0.2-1-0.3c-0.6-0.2-1.2-0.3-1.8-0.3c-0.5,0-1,0-1.6,0c-0.1,0-0.1,0-0.2,0
						c-0.3,0-0.5,0.1-0.8,0.1l-0.1,0c-1.5,0.3-3,0.9-4.6,1.3c-2,0.5-3.8,0.6-5.8-0.1c-0.6-0.2-1.3-0.4-1.9-0.7v1
						c0.7,0.2,1.3,0.5,1.9,0.7c1.5,0.5,2.8,0.5,4.2,0.4c0.5-0.1,1-0.2,1.6-0.3c1.7-0.4,3.3-1.1,5-1.4l0.1,0c0.2,0,0.4,0,0.6-0.1
						c0.1,0,0.1,0,0.2,0C-295.1,63.5-294.3,63.5-293.1,63.8"/>
				</g>
				<g id="g294" transform="translate(103.8462,300.6816)">
					<path id="path296" class="st1" d="M-293.1,66c0,2.4,2,4.4,4.4,4.4c2.4,0,4.4-2,4.4-4.4c0-2.4-2-4.4-4.4-4.4
						C-291.1,61.5-293.1,63.5-293.1,66 M-281.4,66c0,4-3.3,7.3-7.3,7.3c-4,0-7.3-3.3-7.3-7.3s3.3-7.3,7.3-7.3
						C-284.6,58.7-281.4,61.9-281.4,66 M-298.6,54.6c0,0.4-0.2,0.8-0.4,1c-2.6,2.6-4.3,6.3-4.3,10.3c0,8.1,6.6,14.6,14.6,14.6
						c8.1,0,14.6-6.6,14.6-14.6c0-4-1.6-7.7-4.3-10.3l-12.3-12.3l2-2l12.3,12.3c3.2,3.2,5.1,7.5,5.1,12.3c0,9.6-7.8,17.4-17.4,17.4
						c-9.6,0-17.4-7.8-17.4-17.4c0-4.8,2-9.2,5.1-12.3c0.3-0.3,0.6-0.4,1-0.4C-299.2,53.2-298.6,53.8-298.6,54.6 M-279.9,57.2
						c2.2,2.2,3.6,5.3,3.6,8.7c0,6.8-5.5,12.4-12.4,12.4c-6.8,0-12.3-5.5-12.3-12.4c0-3.4,1.4-6.5,3.6-8.7c0.3-0.3,0.6-0.4,1-0.4
						c0.8,0,1.4,0.6,1.4,1.4c0,0.4-0.2,0.8-0.4,1c-1.7,1.7-2.8,4.1-2.8,6.7c0,5.2,4.3,9.5,9.5,9.5c5.2,0,9.5-4.3,9.5-9.5
						c0-2.6-1.1-5-2.8-6.7l-12.3-12.3l2-2L-279.9,57.2z"/>
				</g>
				<g id="g298" transform="translate(149.9941,278.0283)">
					<path id="path300" class="st1" d="M-293.1,66l2-2l12.3,12.3c3.1,3.2,5.1,7.5,5.1,12.3c0,9.6-7.8,17.4-17.4,17.4
						c-9.6,0-17.4-7.8-17.4-17.4c0-4.8,2-9.2,5.1-12.3c0.3-0.3,0.6-0.4,1-0.4c0.8,0,1.4,0.6,1.4,1.4c0,0.4-0.2,0.8-0.4,1
						c-2.6,2.6-4.3,6.3-4.3,10.3c0,8.1,6.5,14.6,14.6,14.6c8.1,0,14.6-6.6,14.6-14.6c0-4-1.6-7.7-4.3-10.3L-293.1,66z"/>
				</g>
				<g id="g302" transform="translate(181.5342,307.4893)">
					<path id="path304" class="st1" d="M-293.1,66c0.5,0,1,0.3,1,1c0,0.6-0.5,1-1,1h-1.5v-2H-293.1z M-294.6,61.6h-1.7v7.9h3.1
						c1.9,0,2.9-1.1,2.9-2.5c0-0.9-0.4-1.7-1.5-2.2v0l2.2-3.1h-2.1l-1.9,2.8h-1.1V61.6z"/>
				</g>
				<path id="path306" class="st1" d="M-106.7,376.9h1.6v-1.7h-1.6V376.9z M-106.7,373.3h-1l0.5,1.4h2.1v-5.7h-1.6L-106.7,373.3z"/>
				<g id="g308" transform="translate(191.8242,305.5713)">
					<path id="path310" class="st1" d="M-293.1,66L-293.1,66l1.2,3.2h1.7l-2.2-5.7h-1.4l-2.3,5.7h1.8L-293.1,66z"/>
				</g>
				<g id="g312" transform="translate(199.0039,306.6143)">
					<path id="path314" class="st1" d="M-293.1,66c-0.1,0.6-0.4,1-1,1c-0.6,0-0.9-0.4-1-1H-293.1z M-296.9,65.3c0,1.7,1.2,3,2.8,3
						c1.5,0,2.7-0.9,2.7-3.1v-0.4h-3.8c0.1-0.7,0.8-1,1.3-1c0.5,0,1,0.2,1.2,0.5l1.1-1.1c-0.7-0.7-1.5-1-2.4-1
						C-295.5,62.3-296.9,63.4-296.9,65.3"/>
				</g>
				<g id="g316" transform="translate(201.8779,308.8008)">
					<path id="path318" class="st1" d="M-293.1,66h1.6v-0.8h0c0.4,0.5,1,0.9,1.6,0.9c0.2,0,0.4,0,0.6-0.1l-0.6-1.7
						c-0.2,0.1-0.4,0.1-0.6,0.1c-0.4,0-0.8-0.2-1.1-0.4v-3.6h-1.6V66z"/>
				</g>
				<g id="g320" transform="translate(180.0762,297.5059)">
					<path id="path322" class="st1" d="M-293.1,66h-2.4v1.5h7l-0.5-1.5h-2.3v-6.3h-1.7V66z"/>
				</g>
				<g id="g324" transform="translate(185.3281,296.8213)">
					<path id="path326" class="st1" d="M-293.1,66h1.6v-0.8h0c0.4,0.5,1,0.9,1.6,0.9c0.2,0,0.4,0,0.6-0.1l-0.6-1.7
						c-0.2,0.1-0.4,0.1-0.6,0.1c-0.4,0-0.8-0.2-1.1-0.4v-3.6h-1.6V66z"/>
				</g>
				<g id="g328" transform="translate(192.9014,293.3223)">
					<path id="path330" class="st1" d="M-293.1,66v0.2c-0.2,0-0.5,0.1-0.7,0.1c-0.8,0-1.1-0.3-1.1-0.7c0-0.3,0.3-0.6,0.8-0.6
						C-293.6,64.9-293.1,65.2-293.1,66 M-296.5,65.6c0,0.9,0.8,1.9,2.5,1.9c0.2,0,0.6,0,1-0.1v0.1c0,0.5-0.4,0.7-0.9,0.7
						c-0.4,0-0.9-0.1-1.3-0.4l-1,1c0.7,0.6,1.6,0.9,2.4,0.9c1.5,0,2.5-0.8,2.5-2.2v-3.6h-1.6v0.5h0c-0.3-0.4-0.8-0.6-1.5-0.6
						C-295.7,63.7-296.5,64.5-296.5,65.6"/>
				</g>
				<g id="g332" transform="translate(196.0098,296.8213)">
					<path id="path334" class="st1" d="M-293.1,66h1.6v-0.6h0c0.4,0.5,1,0.7,1.5,0.7c1.2,0,2-0.8,2-2.1v-3.7h-1.6v3.3
						c0,0.7-0.5,1-0.9,1c-0.4,0-0.8-0.3-1-0.6v-3.7h-1.6V66z"/>
				</g>
				<g id="g336" transform="translate(202.1914,291.876)">
					<path id="path338" class="st1" d="M-293.1,66l1,1c0.2-0.2,0.7-0.5,1.3-0.5c0.5,0,0.7,0.2,0.7,0.4c0,0.4-0.4,0.4-0.6,0.5
						l-0.7,0.2c-0.8,0.3-1.4,0.8-1.4,1.7c0,0.9,0.8,1.8,2.2,1.8c0.9,0,1.7-0.3,2.3-0.9l-1-1c-0.2,0.2-0.6,0.5-1.2,0.5
						c-0.3,0-0.5-0.1-0.5-0.3c0-0.2,0.1-0.3,0.5-0.4l0.8-0.3c0.8-0.3,1.4-0.7,1.4-1.6c0-1.1-1-1.9-2.3-1.9
						C-291.6,65.1-292.4,65.3-293.1,66"/>
				</g>
				<g id="g340" transform="translate(210.9189,292.5039)">
					<path id="path342" class="st1" d="M-293.1,66c0.8,0,1.3,0.6,1.3,1.5c0,0.8-0.5,1.5-1.3,1.5c-0.8,0-1.3-0.7-1.3-1.5
						C-294.4,66.6-293.8,66-293.1,66 M-294.3,62.5h-1.6v7.7h1.6v-0.6h0c0.2,0.3,0.7,0.7,1.6,0.7c1.5,0,2.6-1.2,2.6-2.9
						c0-1.7-1.1-3-2.6-3c-0.9,0-1.3,0.4-1.6,0.7h0V62.5z"/>
				</g>
				<g id="g344" transform="translate(218.8066,294.0068)">
					<path id="path346" class="st1" d="M-293.1,66c0,0.9-0.4,1.5-1.2,1.5c-0.7,0-1.2-0.6-1.2-1.5c0-0.9,0.5-1.5,1.2-1.5
						C-293.5,64.4-293.1,65.1-293.1,66 M-297.2,66c0,1.7,1.2,2.9,2.9,2.9c1.7,0,2.9-1.2,2.9-2.9c0-1.8-1.2-3-2.9-3
						C-296,63-297.2,64.2-297.2,66"/>
				</g>
				<g id="g348" transform="translate(221.6904,296.8213)">
					<path id="path350" class="st1" d="M-293.1,66h1.6v-0.8h0c0.4,0.5,1,0.9,1.6,0.9c0.2,0,0.4,0,0.6-0.1l-0.6-1.7
						c-0.2,0.1-0.4,0.1-0.6,0.1c-0.4,0-0.8-0.2-1.1-0.4v-3.6h-1.6V66z"/>
				</g>
				<g id="g352" transform="translate(226.9199,295.3975)">
					<path id="path354" class="st1" d="M-293.1,66h-1v1.4h1v1.9h1.6v-1.9h1.6l-0.5-1.4h-1.1v-4.2h-1.6V66z"/>
				</g>
				<g id="g356" transform="translate(160.8115,297.8047)">
					<path id="path358" class="st1" d="M-293.1,66c-0.2-0.1-0.4-0.1-0.6-0.2l-0.4-1.1c0.3,0.1,0.7,0.1,1,0.2c0.4,0.1,0.4,0.1,1,0.3
						v1C-292.7,66.1-292.7,66.1-293.1,66 M-307.7,70h4.1v3.7h-4.1V70z M-302.6,70h5.3l-1.6,3.7h-3.7V70z M-307.9,66
						c-0.6-0.2-1.3-0.4-1.9-0.7v1V70h1v3.7h-1v1.9h5l1,1h2.5l1-1h0.6c0.6,0,1.1-0.3,1.3-0.8l2.1-4.7h2.9l-2-5.4c-0.4,0-0.8,0-1.3,0
						c-0.1,0-0.1,0-0.2,0c-0.3,0-0.5,0.1-0.8,0.1l-0.1,0c-1.5,0.3-3,0.9-4.6,1.3C-304.1,66.6-305.9,66.6-307.9,66 M-293.1,63.8
						c0.4,0.1,0.4,0.1,1,0.3v-1c-0.6-0.2-0.6-0.2-1-0.3c-0.6-0.2-1.2-0.3-1.8-0.3c-0.5,0-1,0-1.6,0c-0.1,0-0.1,0-0.2,0
						c-0.3,0-0.5,0.1-0.8,0.1l-0.1,0c-1.5,0.3-3,0.9-4.6,1.3c-2,0.5-3.8,0.6-5.8-0.1c-0.6-0.2-1.3-0.4-1.9-0.7v1
						c0.7,0.2,1.3,0.5,1.9,0.7c1.5,0.5,2.8,0.5,4.2,0.4c0.5-0.1,1-0.2,1.6-0.3c1.7-0.4,3.3-1.1,5-1.4l0.1,0c0.2,0,0.4,0,0.6-0.1
						c0.1,0,0.1,0,0.2,0C-295.1,63.5-294.3,63.5-293.1,63.8"/>
				</g>
				<g id="g360" transform="translate(300.9814,280.3184)">
					<path id="path362" class="st1" d="M-293.1,66c0.5,0,1,0.3,1,1c0,0.6-0.5,1-1,1h-1.5v-2H-293.1z M-294.6,61.6h-1.7v7.9h3.1
						c1.9,0,2.9-1.1,2.9-2.5c0-0.9-0.4-1.7-1.5-2.2v0l2.2-3.1h-2.1l-1.9,2.8h-1.1V61.6z"/>
				</g>
				<path id="path364" class="st1" d="M12.8,349.8h1.6v-1.7h-1.6V349.8z M12.8,346.2h-1l0.5,1.4h2.1v-5.7h-1.6V346.2z"/>
				<g id="g366" transform="translate(311.2705,278.4004)">
					<path id="path368" class="st1" d="M-293.1,66L-293.1,66l1.2,3.2h1.7l-2.2-5.7h-1.4l-2.3,5.7h1.8L-293.1,66z"/>
				</g>
				<g id="g370" transform="translate(318.4512,279.4434)">
					<path id="path372" class="st1" d="M-293.1,66c-0.1,0.6-0.4,1-1,1c-0.6,0-0.9-0.4-1-1H-293.1z M-296.9,65.3c0,1.7,1.2,3,2.8,3
						c1.5,0,2.7-0.9,2.7-3.1v-0.4h-3.8c0.1-0.7,0.8-1,1.3-1c0.5,0,1,0.2,1.2,0.5l1.1-1.1c-0.7-0.7-1.5-1-2.4-1
						C-295.5,62.3-296.9,63.4-296.9,65.3"/>
				</g>
				<g id="g374" transform="translate(321.3252,281.6309)">
					<path id="path376" class="st1" d="M-293.1,66h1.6v-0.8h0c0.4,0.5,1,0.9,1.6,0.9c0.2,0,0.4,0,0.6-0.1l-0.6-1.7
						c-0.2,0.1-0.4,0.1-0.6,0.1c-0.4,0-0.8-0.2-1.1-0.4v-3.6h-1.6V66z"/>
				</g>
				<g id="g378" transform="translate(286.9824,270.3369)">
					<path id="path380" class="st1" d="M-293.1,66h-2.4v1.5h7l-0.5-1.5h-2.3v-6.3h-1.7V66z"/>
				</g>
				<g id="g382" transform="translate(292.2344,269.6533)">
					<path id="path384" class="st1" d="M-293.1,66h1.6v-0.8h0c0.4,0.5,1,0.9,1.6,0.9c0.2,0,0.4,0,0.6-0.1l-0.6-1.7
						c-0.2,0.1-0.4,0.1-0.6,0.1c-0.4,0-0.8-0.2-1.1-0.4v-3.6h-1.6V66z"/>
				</g>
				<g id="g386" transform="translate(299.8066,266.1543)">
					<path id="path388" class="st1" d="M-293.1,66v0.2c-0.2,0-0.5,0.1-0.7,0.1c-0.8,0-1.1-0.3-1.1-0.7c0-0.3,0.3-0.6,0.8-0.6
						C-293.6,64.9-293.1,65.2-293.1,66 M-296.5,65.6c0,0.9,0.8,1.9,2.5,1.9c0.2,0,0.7,0,1-0.1v0.1c0,0.5-0.4,0.7-0.9,0.7
						c-0.4,0-0.9-0.1-1.3-0.4l-1,1c0.6,0.6,1.6,0.9,2.4,0.9c1.5,0,2.5-0.8,2.5-2.2v-3.6h-1.6v0.5h0c-0.3-0.4-0.8-0.6-1.5-0.6
						C-295.7,63.7-296.5,64.5-296.5,65.6"/>
				</g>
				<g id="g390" transform="translate(302.916,269.6533)">
					<path id="path392" class="st1" d="M-293.1,66h1.6v-0.6h0c0.4,0.5,1,0.7,1.5,0.7c1.2,0,2-0.8,2-2.1v-3.7h-1.6v3.3
						c0,0.7-0.5,1-0.9,1c-0.4,0-0.8-0.3-1-0.6v-3.7h-1.6V66z"/>
				</g>
				<g id="g394" transform="translate(309.0986,264.707)">
					<path id="path396" class="st1" d="M-293.1,66l1,1c0.2-0.2,0.7-0.5,1.3-0.5c0.5,0,0.7,0.2,0.7,0.4c0,0.4-0.4,0.4-0.6,0.5
						l-0.7,0.2c-0.8,0.3-1.4,0.8-1.4,1.7c0,0.9,0.8,1.8,2.2,1.8c0.9,0,1.7-0.3,2.3-0.9l-1-1c-0.2,0.2-0.6,0.5-1.2,0.5
						c-0.3,0-0.5-0.1-0.5-0.3c0-0.2,0.1-0.3,0.5-0.4l0.8-0.3c0.8-0.3,1.4-0.7,1.4-1.6c0-1.1-1-1.9-2.3-1.9
						C-291.6,65.1-292.4,65.3-293.1,66"/>
				</g>
				<g id="g398" transform="translate(317.8262,265.335)">
					<path id="path400" class="st1" d="M-293.1,66c0.8,0,1.3,0.6,1.3,1.5c0,0.8-0.5,1.5-1.3,1.5c-0.8,0-1.3-0.7-1.3-1.5
						C-294.4,66.6-293.8,66-293.1,66 M-294.3,62.5h-1.6v7.7h1.6v-0.6h0c0.2,0.3,0.7,0.7,1.6,0.7c1.5,0,2.6-1.2,2.6-3
						c0-1.7-1.1-3-2.6-3c-0.9,0-1.3,0.4-1.6,0.7h0V62.5z"/>
				</g>
				<g id="g402" transform="translate(325.7129,266.8379)">
					<path id="path404" class="st1" d="M-293.1,66c0,0.9-0.4,1.5-1.2,1.5c-0.7,0-1.2-0.6-1.2-1.5c0-0.9,0.5-1.5,1.2-1.5
						C-293.5,64.4-293.1,65.1-293.1,66 M-297.2,66c0,1.7,1.2,2.9,2.9,2.9c1.7,0,2.9-1.2,2.9-2.9c0-1.8-1.2-3-2.9-3
						C-296,63-297.2,64.2-297.2,66"/>
				</g>
				<g id="g406" transform="translate(328.5977,269.6533)">
					<path id="path408" class="st1" d="M-293.1,66h1.6v-0.8h0c0.4,0.5,1,0.9,1.6,0.9c0.2,0,0.4,0,0.6-0.1l-0.6-1.7
						c-0.2,0.1-0.4,0.1-0.6,0.1c-0.4,0-0.8-0.2-1.1-0.4v-3.6h-1.6V66z"/>
				</g>
				<g id="g410" transform="translate(333.8262,268.2285)">
					<path id="path412" class="st1" d="M-293.1,66h-1v1.4h1v1.9h1.6v-1.9h1.6l-0.5-1.4h-1.1v-4.2h-1.6V66z"/>
				</g>
				<g id="g414" transform="translate(308.9473,292.1348)">
					<path id="path416" class="st1" d="M-293.1,66l2-2l12.3,12.3c3.1,3.2,5.1,7.5,5.1,12.3c0,9.6-7.8,17.4-17.4,17.4
						c-9.6,0-17.4-7.8-17.4-17.4c0-4.8,2-9.2,5.1-12.3c0.3-0.3,0.6-0.4,1-0.4c0.8,0,1.4,0.6,1.4,1.4c0,0.4-0.2,0.8-0.4,1
						c-2.6,2.6-4.3,6.3-4.3,10.3c0,8.1,6.5,14.6,14.6,14.6c8.1,0,14.6-6.6,14.6-14.6c0-4-1.6-7.7-4.3-10.3L-293.1,66z"/>
				</g>
				<g id="g418" transform="translate(319.7383,311.8408)">
					<path id="path420" class="st1" d="M-293.1,66c-0.2-0.1-0.4-0.1-0.6-0.2l-0.4-1.1c0.3,0,0.7,0.1,1,0.2c0.4,0.1,0.4,0.1,1,0.3v1
						C-292.7,66.1-292.7,66.1-293.1,66 M-307.7,70h4.1v3.7h-4.1V70z M-302.6,70h5.3l-1.6,3.7h-3.7V70z M-307.9,66
						c-0.6-0.2-1.3-0.4-1.9-0.7v1V70h1v3.7h-1v1.9h5l1,1h2.5l1-1h0.6c0.6,0,1.1-0.3,1.3-0.8l2.1-4.7h2.9l-2-5.4c-0.4,0-0.8,0-1.3,0
						c-0.1,0-0.1,0-0.2,0c-0.3,0-0.5,0.1-0.8,0.1l-0.1,0c-1.5,0.3-3,0.9-4.6,1.3C-304.1,66.6-305.9,66.6-307.9,66 M-293.1,63.8
						c0.4,0.1,0.4,0.1,1,0.3v-1c-0.6-0.2-0.6-0.2-1-0.3c-0.6-0.2-1.2-0.3-1.8-0.3c-0.5,0-1,0-1.6,0c-0.1,0-0.1,0-0.2,0
						c-0.3,0-0.5,0.1-0.8,0.1l-0.1,0c-1.5,0.3-3,0.9-4.6,1.3c-2,0.5-3.8,0.6-5.8-0.1c-0.6-0.2-1.3-0.4-1.9-0.7v1
						c0.7,0.2,1.3,0.5,1.9,0.7c1.5,0.5,2.8,0.5,4.2,0.4c0.5-0.1,1-0.2,1.6-0.3c1.7-0.4,3.3-1.1,5-1.4l0.1,0c0.2,0,0.4,0,0.6-0.1
						c0.1,0,0.1,0,0.2,0C-295.1,63.5-294.3,63.5-293.1,63.8"/>
				</g>
				<g id="g422" transform="translate(543.7637,382.7432)">
					<path id="path424" class="st3" d="M-293.1,66l2-2l12.3,12.3c3.1,3.2,5.1,7.5,5.1,12.3c0,9.6-7.8,17.4-17.4,17.4
						c-9.6,0-17.4-7.8-17.4-17.4c0-4.8,2-9.2,5.1-12.3c0.3-0.3,0.6-0.4,1-0.4c0.8,0,1.4,0.6,1.4,1.4c0,0.4-0.2,0.8-0.4,1
						c-2.6,2.6-4.3,6.3-4.3,10.3c0,8.1,6.5,14.6,14.6,14.6c8.1,0,14.6-6.6,14.6-14.6c0-4-1.6-7.7-4.3-10.3L-293.1,66z"/>
				</g>
				<g id="g426" transform="translate(554.5537,402.4805)">
					<path id="path428" class="st3" d="M-293.1,66c-0.2-0.1-0.4-0.1-0.6-0.2l-0.4-1.1c0.3,0,0.7,0.1,1,0.2c0.4,0.1,0.4,0.1,1,0.3v1
						C-292.7,66.1-292.7,66.1-293.1,66 M-307.7,70h4.1v3.7h-4.1V70z M-302.6,70h5.3l-1.6,3.7h-3.7V70z M-307.9,66
						c-0.6-0.2-1.3-0.4-1.9-0.7v1V70h1v3.7h-1v1.9h5l1,1h2.5l1-1h0.6c0.6,0,1.1-0.3,1.3-0.8l2.1-4.7h2.9l-2-5.4c-0.4,0-0.8,0-1.3,0
						c-0.1,0-0.1,0-0.2,0c-0.3,0-0.5,0.1-0.8,0.1l-0.1,0c-1.5,0.3-3,0.9-4.6,1.3C-304.1,66.6-305.9,66.6-307.9,66 M-293.1,63.8
						c0.4,0.1,0.4,0.1,1,0.3v-1c-0.6-0.2-0.6-0.2-1-0.3c-0.6-0.2-1.2-0.3-1.8-0.3c-0.5,0-1,0-1.6,0c-0.1,0-0.1,0-0.2,0
						c-0.3,0-0.5,0.1-0.8,0.1l-0.1,0c-1.5,0.3-3,0.9-4.6,1.3c-2,0.5-3.8,0.6-5.8-0.1c-0.6-0.2-1.3-0.4-1.9-0.7v1
						c0.7,0.2,1.3,0.5,1.9,0.7c1.5,0.5,2.8,0.5,4.2,0.4c0.5-0.1,1-0.2,1.6-0.3c1.6-0.4,3.3-1.1,5-1.4l0.1,0c0.2,0,0.4,0,0.6-0.1
						c0.1,0,0.1,0,0.2,0C-295.1,63.5-294.3,63.5-293.1,63.8"/>
				</g>
				<g id="g430" transform="translate(497.6152,405.3965)">
					<path id="path432" class="st3" d="M-293.1,66c0,2.4,2,4.4,4.4,4.4c2.4,0,4.4-2,4.4-4.4c0-2.4-2-4.4-4.4-4.4
						C-291.1,61.5-293.1,63.5-293.1,66 M-281.4,66c0,4-3.3,7.3-7.3,7.3c-4,0-7.3-3.3-7.3-7.3c0-4,3.3-7.3,7.3-7.3
						C-284.6,58.7-281.4,61.9-281.4,66 M-298.6,54.6c0,0.4-0.2,0.8-0.4,1c-2.6,2.6-4.3,6.3-4.3,10.3c0,8.1,6.6,14.6,14.6,14.6
						c8.1,0,14.6-6.6,14.6-14.6c0-4-1.6-7.7-4.3-10.3l-12.3-12.3l2-2l12.3,12.3c3.1,3.2,5.1,7.5,5.1,12.3c0,9.6-7.8,17.4-17.4,17.4
						c-9.6,0-17.4-7.8-17.4-17.4c0-4.8,2-9.2,5.1-12.3c0.3-0.3,0.6-0.4,1-0.4C-299.2,53.2-298.6,53.8-298.6,54.6 M-279.9,57.2
						c2.2,2.2,3.6,5.3,3.6,8.7c0,6.8-5.5,12.4-12.3,12.4c-6.8,0-12.4-5.5-12.4-12.4c0-3.4,1.4-6.5,3.6-8.7c0.3-0.3,0.6-0.4,1-0.4
						c0.8,0,1.4,0.6,1.4,1.4c0,0.4-0.2,0.8-0.4,1c-1.7,1.7-2.8,4.1-2.8,6.7c0,5.2,4.3,9.5,9.5,9.5c5.2,0,9.5-4.3,9.5-9.5
						c0-2.6-1.1-5-2.8-6.7l-12.3-12.3l2-2L-279.9,57.2z"/>
				</g>
				<g id="g434" transform="translate(574.9902,411.9687)">
					<path id="path436" class="st3" d="M-293.1,66c0.7,0,1.2,0.4,1.2,1.1c0,0.7-0.4,1.1-1.2,1.1h-1.2V66H-293.1z M-296,69.7h3.1
						c1.9,0,2.8-1.4,2.8-2.6c0-1.3-0.9-2.6-2.8-2.6h-1.4v-2.6h-1.7V69.7z"/>
				</g>
				<g id="g438" transform="translate(582.4512,411.3291)">
					<path id="path440" class="st3" d="M-293.1,66c-0.1,0.6-0.4,1-1,1c-0.6,0-0.9-0.4-1-1H-293.1z M-296.9,65.3c0,1.7,1.2,3,2.8,3
						c1.5,0,2.7-0.9,2.7-3.1v-0.4h-3.8c0.1-0.7,0.8-1,1.3-1c0.5,0,1,0.2,1.2,0.5l1.1-1.1c-0.7-0.7-1.5-1-2.4-1
						C-295.5,62.3-296.9,63.4-296.9,65.3"/>
				</g>
				<g id="g442" transform="translate(588.6895,410.1631)">
					<path id="path444" class="st3" d="M-293.1,66L-293.1,66c-0.4-0.2-1-0.4-1.5-0.4c-1.2,0-2.3,0.6-2.3,2.3v1.5h1.6v-1.5
						c0-0.5,0.5-0.9,1-0.9c0.4,0,0.9,0.1,1.2,0.4v2h1.6v-5.7h-1.6V66z"/>
				</g>
				<g id="g446" transform="translate(591.877,413.5156)">
					<path id="path448" class="st3" d="M-293.1,66h1.6v-2.1h1.8V66h1.6v-5.7h-1.6v2.1h-1.8v-2.1h-1.6V66z"/>
				</g>
				<g id="g450" transform="translate(602.2656,410.7012)">
					<path id="path452" class="st3" d="M-293.1,66c0,0.9-0.5,1.5-1.2,1.5c-0.7,0-1.2-0.6-1.2-1.5c0-0.9,0.5-1.5,1.2-1.5
						C-293.5,64.4-293.1,65.1-293.1,66 M-297.2,66c0,1.7,1.2,2.9,2.9,2.9c1.7,0,2.9-1.2,2.9-2.9c0-1.8-1.2-3-2.9-3
						C-296,63-297.2,64.2-297.2,66"/>
				</g>
				<g id="g454" transform="translate(605.834,415.2314)">
					<path id="path456" class="st3" d="M-293.1,66l0.9,0.8c0.2-0.3,0.5-0.7,1-0.7c0.7,0,0.9,0.4,1.1,0.7l0.8-0.8
						c-0.2-0.4-0.8-1.1-1.8-1.1C-292.2,64.8-292.8,65.5-293.1,66 M-293.8,64.2h1.6V61h0l2.2,3.2h1.4v-5.7h-1.6v3.2h0l-2.2-3.2h-1.4
						V64.2z"/>
				</g>
				<g id="g458" transform="translate(572.9609,400.1133)">
					<path id="path460" class="st3" d="M-293.1,66h-1.7v1.4h5.1l-0.5-1.4h-1.3v-4.2h-1.6V66z"/>
				</g>
				<g id="g462" transform="translate(580.0283,397.2197)">
					<path id="path464" class="st3" d="M-293.1,66c0.8,0,1.3,0.6,1.3,1.5c0,0.8-0.5,1.5-1.3,1.5c-0.8,0-1.3-0.7-1.3-1.5
						C-294.4,66.6-293.8,66-293.1,66 M-294.3,62.5h-1.6v7.7h1.6v-0.6h0c0.2,0.3,0.7,0.7,1.6,0.7c1.5,0,2.6-1.2,2.6-2.9
						c0-1.7-1.1-3-2.6-3c-0.9,0-1.3,0.4-1.6,0.7h0V62.5z"/>
				</g>
				<g id="g466" transform="translate(587.2324,398.0381)">
					<path id="path468" class="st3" d="M-293.1,66v0.2c-0.2,0-0.5,0.1-0.7,0.1c-0.8,0-1.1-0.3-1.1-0.7c0-0.4,0.3-0.6,0.8-0.6
						C-293.6,64.9-293.1,65.2-293.1,66 M-296.5,65.6c0,0.9,0.8,1.9,2.5,1.9c0.2,0,0.6,0,1-0.1v0.1c0,0.5-0.4,0.7-0.9,0.7
						c-0.4,0-0.9-0.1-1.3-0.4l-1,1c0.6,0.6,1.6,0.9,2.4,0.9c1.5,0,2.5-0.8,2.5-2.2v-3.6h-1.6v0.6h0c-0.3-0.5-0.8-0.7-1.5-0.7
						C-295.7,63.7-296.5,64.5-296.5,65.6"/>
				</g>
				<g id="g470" transform="translate(590.3398,401.5371)">
					<path id="path472" class="st3" d="M-293.1,66h1.6v-2.1h1.8V66h1.6v-5.7h-1.6v2.1h-1.8v-2.1h-1.6V66z"/>
				</g>
				<g id="g474" transform="translate(596.6465,398.7227)">
					<path id="path476" class="st3" d="M-293.1,66c0,1.7,1.1,2.9,2.8,2.9c0.7,0,1.5-0.1,2.2-0.8l-1-1c-0.3,0.3-0.6,0.4-1,0.4
						c-0.7,0-1.2-0.6-1.2-1.5s0.4-1.5,1.2-1.5c0.4,0,0.8,0.1,1,0.4l1-1c-0.6-0.6-1.4-0.8-2.2-0.8C-292,63-293.1,64.2-293.1,66"/>
				</g>
				<g id="g478" transform="translate(602.5693,401.5371)">
					<path id="path480" class="st3" d="M-293.1,66h4.9v-5.7h-1.6v4.2h-1.7v-4.2h-1.6V66z"/>
				</g>
				<g id="g482" transform="translate(612.7559,398.7227)">
					<path id="path484" class="st3" d="M-293.1,66c0,0.9-0.4,1.5-1.2,1.5c-0.7,0-1.2-0.6-1.2-1.5c0-0.9,0.5-1.5,1.2-1.5
						C-293.5,64.4-293.1,65.1-293.1,66 M-297.2,66c0,1.7,1.2,2.9,2.9,2.9c1.7,0,2.9-1.2,2.9-2.9c0-1.8-1.2-3-2.9-3
						C-296,63-297.2,64.2-297.2,66"/>
				</g>
				<g id="g486" transform="translate(618.499,397.2197)">
					<path id="path488" class="st3" d="M-293.1,66c0.8,0,1.3,0.6,1.3,1.5c0,0.8-0.5,1.5-1.3,1.5c-0.8,0-1.3-0.7-1.3-1.5
						C-294.4,66.6-293.8,66-293.1,66 M-294.3,62.5h-1.6v7.7h1.6v-0.6h0c0.2,0.3,0.7,0.7,1.6,0.7c1.5,0,2.6-1.2,2.6-2.9
						c0-1.7-1.1-3-2.6-3c-0.9,0-1.3,0.4-1.6,0.7h0V62.5z"/>
				</g>
				<g id="g490" transform="translate(623.7637,400.1133)">
					<path id="path492" class="st3" d="M-293.1,66h-1.7v1.4h5.1l-0.5-1.4h-1.3v-4.2h-1.6V66z"/>
				</g>
				<g id="g494" transform="translate(703.9922,396.8545)">
					<path id="path496" class="st3" d="M-293.1,66l2-2l12.3,12.3c3.1,3.2,5.1,7.5,5.1,12.3c0,9.6-7.8,17.4-17.4,17.4
						c-9.6,0-17.4-7.8-17.4-17.4c0-4.8,2-9.2,5.1-12.3c0.3-0.3,0.6-0.4,1-0.4c0.8,0,1.4,0.6,1.4,1.4c0,0.4-0.2,0.8-0.4,1
						c-2.6,2.6-4.3,6.3-4.3,10.3c0,8.1,6.6,14.6,14.6,14.6s14.6-6.6,14.6-14.6c0-4-1.6-7.7-4.3-10.3L-293.1,66z"/>
				</g>
				<g id="g498" transform="translate(689.7627,384.793)">
					<path id="path500" class="st3" d="M-293.1,66c0.7,0,1.2,0.4,1.2,1.1c0,0.7-0.4,1.1-1.2,1.1h-1.2V66H-293.1z M-296,69.7h3.1
						c1.9,0,2.8-1.4,2.8-2.6c0-1.3-0.9-2.6-2.8-2.6h-1.4v-2.6h-1.7V69.7z"/>
				</g>
				<g id="g502" transform="translate(697.2246,384.1533)">
					<path id="path504" class="st3" d="M-293.1,66c-0.1,0.6-0.4,1-1,1c-0.6,0-0.9-0.4-1-1H-293.1z M-296.9,65.3c0,1.7,1.2,3,2.8,3
						c1.5,0,2.7-0.9,2.7-3.1v-0.4h-3.8c0.1-0.7,0.8-1,1.3-1c0.5,0,1,0.2,1.2,0.5l1.1-1.1c-0.7-0.7-1.5-1-2.4-1
						C-295.5,62.3-296.9,63.4-296.9,65.3"/>
				</g>
				<g id="g506" transform="translate(703.4629,382.9873)">
					<path id="path508" class="st3" d="M-293.1,66L-293.1,66c-0.4-0.2-1-0.4-1.5-0.4c-1.2,0-2.3,0.7-2.3,2.3v1.5h1.6v-1.5
						c0-0.5,0.5-0.9,1-0.9c0.4,0,0.9,0.1,1.2,0.4v2h1.6v-5.7h-1.6V66z"/>
				</g>
				<g id="g510" transform="translate(706.6504,386.3408)">
					<path id="path512" class="st3" d="M-293.1,66h1.6v-2.1h1.8V66h1.6v-5.7h-1.6v2.1h-1.8v-2.1h-1.6V66z"/>
				</g>
				<g id="g514" transform="translate(717.0381,383.5254)">
					<path id="path516" class="st3" d="M-293.1,66c0,0.9-0.4,1.5-1.2,1.5c-0.7,0-1.2-0.6-1.2-1.5c0-0.9,0.5-1.5,1.2-1.5
						C-293.5,64.4-293.1,65.1-293.1,66 M-297.2,66c0,1.7,1.2,2.9,2.9,2.9c1.7,0,2.9-1.2,2.9-2.9c0-1.8-1.2-3-2.9-3
						C-296,63-297.2,64.2-297.2,66"/>
				</g>
				<g id="g518" transform="translate(720.6084,388.0566)">
					<path id="path520" class="st3" d="M-293.1,66l0.9,0.8c0.2-0.3,0.5-0.7,1-0.7c0.7,0,0.9,0.4,1.1,0.7l0.8-0.8
						c-0.2-0.4-0.8-1.1-1.9-1.1C-292.2,64.8-292.8,65.5-293.1,66 M-293.8,64.2h1.6V61h0l2.2,3.2h1.4v-5.7h-1.6v3.2h0l-2.2-3.2h-1.4
						V64.2z"/>
				</g>
				<g id="g522" transform="translate(679.9229,372.9385)">
					<path id="path524" class="st3" d="M-293.1,66h-1.7v1.4h5.1l-0.5-1.4h-1.3v-4.2h-1.6V66z"/>
				</g>
				<g id="g526" transform="translate(686.9912,370.0449)">
					<path id="path528" class="st3" d="M-293.1,66c0.8,0,1.3,0.6,1.3,1.5c0,0.8-0.5,1.5-1.3,1.5c-0.8,0-1.3-0.6-1.3-1.5
						C-294.4,66.6-293.8,66-293.1,66 M-294.3,62.5h-1.6v7.7h1.6v-0.6h0c0.2,0.3,0.7,0.7,1.6,0.7c1.5,0,2.6-1.2,2.6-2.9
						c0-1.7-1.1-3-2.6-3c-0.9,0-1.3,0.4-1.6,0.7h0V62.5z"/>
				</g>
				<g id="g530" transform="translate(694.1943,370.8633)">
					<path id="path532" class="st3" d="M-293.1,66v0.2c-0.2,0-0.5,0.1-0.7,0.1c-0.8,0-1.1-0.3-1.1-0.7c0-0.4,0.3-0.7,0.8-0.6
						C-293.6,64.9-293.1,65.2-293.1,66 M-296.5,65.6c0,0.9,0.8,1.9,2.5,1.9c0.2,0,0.7,0,1-0.1v0.1c0,0.5-0.4,0.7-0.9,0.7
						c-0.4,0-0.9-0.1-1.3-0.4l-1,1c0.7,0.6,1.6,0.9,2.4,0.9c1.5,0,2.5-0.8,2.5-2.2v-3.6h-1.6v0.6h0c-0.3-0.5-0.8-0.7-1.5-0.7
						C-295.7,63.7-296.5,64.5-296.5,65.6"/>
				</g>
				<g id="g534" transform="translate(697.3037,374.3623)">
					<path id="path536" class="st3" d="M-293.1,66h1.6v-2.1h1.9V66h1.6v-5.7h-1.6v2.1h-1.9v-2.1h-1.6V66z"/>
				</g>
				<g id="g538" transform="translate(703.6084,371.5479)">
					<path id="path540" class="st3" d="M-293.1,66c0,1.7,1.1,2.9,2.8,2.9c0.7,0,1.5-0.1,2.2-0.8l-1-1c-0.3,0.3-0.6,0.4-1,0.4
						c-0.7,0-1.2-0.6-1.2-1.5c0-0.9,0.4-1.5,1.2-1.5c0.4,0,0.8,0.1,1,0.4l1-1c-0.6-0.6-1.4-0.8-2.2-0.8C-292,63-293.1,64.2-293.1,66
						"/>
				</g>
				<g id="g542" transform="translate(709.5322,374.3623)">
					<path id="path544" class="st3" d="M-293.1,66h4.9v-5.7h-1.6v4.2h-1.7v-4.2h-1.6V66z"/>
				</g>
				<g id="g546" transform="translate(719.7187,371.5479)">
					<path id="path548" class="st3" d="M-293.1,66c0,0.9-0.4,1.5-1.2,1.5c-0.7,0-1.2-0.6-1.2-1.5c0-0.9,0.5-1.5,1.2-1.5
						C-293.5,64.4-293.1,65.1-293.1,66 M-297.2,66c0,1.7,1.2,2.9,2.9,2.9c1.7,0,2.9-1.2,2.9-2.9c0-1.8-1.2-3-2.9-3
						C-296,63-297.2,64.2-297.2,66"/>
				</g>
				<g id="g550" transform="translate(725.4629,370.0449)">
					<path id="path552" class="st3" d="M-293.1,66c0.8,0,1.3,0.6,1.3,1.5c0,0.8-0.5,1.5-1.3,1.5c-0.8,0-1.3-0.6-1.3-1.5
						C-294.4,66.6-293.8,66-293.1,66 M-294.3,62.5h-1.6v7.7h1.6v-0.6h0c0.2,0.3,0.7,0.7,1.6,0.7c1.5,0,2.6-1.2,2.6-2.9
						c0-1.7-1.1-3-2.6-3c-0.9,0-1.3,0.4-1.6,0.7h0V62.5z"/>
				</g>
				<g id="g554" transform="translate(730.7256,372.9385)">
					<path id="path556" class="st3" d="M-293.1,66h-1.7v1.4h5.1l-0.5-1.4h-1.3v-4.2h-1.6V66z"/>
				</g>
				<g id="g558" transform="translate(714.7822,416.5615)">
					<path id="path560" class="st3" d="M-293.1,66c-0.2-0.1-0.4-0.1-0.6-0.2l-0.4-1.1c0.3,0.1,0.7,0.1,1,0.2c0.4,0.1,0.4,0.1,1,0.3
						v1C-292.7,66.1-292.7,66.1-293.1,66 M-307.7,70h4.1v3.7h-4.1V70z M-302.6,70h5.3l-1.6,3.7h-3.7V70z M-307.9,66
						c-0.6-0.2-1.3-0.4-1.9-0.7v1V70h1v3.7h-1v1.9h5l1,1h2.5l1-1h0.6c0.6,0,1.1-0.3,1.3-0.8l2.1-4.7h2.9l-2-5.4c-0.4,0-0.8,0-1.3,0
						c-0.1,0-0.1,0-0.2,0c-0.3,0-0.5,0.1-0.8,0.1l-0.1,0c-1.5,0.3-3,0.9-4.6,1.3C-304.1,66.6-305.9,66.6-307.9,66 M-293.1,63.8
						c0.4,0.1,0.4,0.1,1,0.3v-1c-0.6-0.2-0.6-0.2-1-0.3c-0.6-0.2-1.2-0.3-1.8-0.3c-0.5,0-1,0-1.6,0c-0.1,0-0.1,0-0.2,0
						c-0.3,0-0.5,0.1-0.8,0.1l-0.1,0c-1.5,0.3-3,0.9-4.6,1.3c-2,0.5-3.8,0.6-5.8-0.1c-0.6-0.2-1.3-0.4-1.9-0.7v1
						c0.7,0.2,1.3,0.5,1.9,0.7c1.5,0.5,2.8,0.5,4.2,0.4c0.5-0.1,1-0.2,1.6-0.3c1.6-0.4,3.3-1.1,5-1.4l0.1,0c0.2,0,0.4,0,0.6-0.1
						c0.1,0,0.1,0,0.2,0C-295.1,63.5-294.3,63.5-293.1,63.8"/>
				</g>
				<g id="g562" transform="translate(499.2588,307.126)">
					<path id="path564" class="st3" d="M-293.1,66c0,2.4,2,4.4,4.4,4.4c2.4,0,4.4-2,4.4-4.4c0-2.4-2-4.4-4.4-4.4
						C-291.1,61.5-293.1,63.5-293.1,66 M-281.4,66c0,4-3.3,7.3-7.3,7.3c-4,0-7.3-3.3-7.3-7.3s3.3-7.3,7.3-7.3
						C-284.6,58.7-281.4,61.9-281.4,66 M-298.6,54.6c0,0.4-0.2,0.8-0.4,1c-2.6,2.6-4.3,6.3-4.3,10.3c0,8.1,6.6,14.6,14.6,14.6
						c8.1,0,14.6-6.6,14.6-14.6c0-4-1.6-7.7-4.3-10.3l-12.3-12.3l2-2l12.3,12.3c3.2,3.2,5.1,7.5,5.1,12.3c0,9.6-7.8,17.4-17.4,17.4
						c-9.6,0-17.4-7.8-17.4-17.4c0-4.8,2-9.2,5.1-12.3c0.3-0.3,0.6-0.4,1-0.4C-299.2,53.2-298.6,53.8-298.6,54.6 M-279.9,57.2
						c2.2,2.2,3.6,5.3,3.6,8.7c0,6.8-5.5,12.4-12.3,12.4c-6.8,0-12.4-5.5-12.4-12.4c0-3.4,1.4-6.5,3.6-8.7c0.3-0.3,0.6-0.4,1-0.4
						c0.8,0,1.4,0.6,1.4,1.4c0,0.4-0.2,0.8-0.4,1c-1.7,1.7-2.8,4.1-2.8,6.7c0,5.2,4.3,9.5,9.5,9.5c5.2,0,9.5-4.3,9.5-9.5
						c0-2.6-1.1-5-2.8-6.7l-12.3-12.3l2-2L-279.9,57.2z"/>
				</g>
				<g id="g566" transform="translate(545.4072,284.4727)">
					<path id="path568" class="st3" d="M-293.1,66l2-2l12.3,12.3c3.1,3.2,5.1,7.5,5.1,12.3c0,9.6-7.8,17.4-17.4,17.4
						c-9.6,0-17.4-7.8-17.4-17.4c0-4.8,2-9.2,5.1-12.3c0.3-0.3,0.6-0.4,1-0.4c0.8,0,1.4,0.6,1.4,1.4c0,0.4-0.2,0.8-0.4,1
						c-2.6,2.6-4.3,6.3-4.3,10.3c0,8.1,6.6,14.6,14.6,14.6c8.1,0,14.6-6.6,14.6-14.6c0-4-1.6-7.7-4.3-10.3L-293.1,66z"/>
				</g>
				<g id="g570" transform="translate(576.9473,313.9336)">
					<path id="path572" class="st3" d="M-293.1,66c0.5,0,1,0.3,1,1c0,0.6-0.5,1-1,1h-1.5v-2H-293.1z M-294.6,61.6h-1.7v7.9h3.1
						c1.9,0,2.9-1.1,2.9-2.5c0-0.9-0.4-1.7-1.5-2.2v0l2.2-3.1h-2.1l-1.9,2.8h-1.1V61.6z"/>
				</g>
				<path id="path574" class="st3" d="M288.7,383.4h1.6v-1.7h-1.6V383.4z M288.7,379.8h-1l0.5,1.4h2.1v-5.7h-1.6V379.8z"/>
				<g id="g576" transform="translate(587.2373,312.0156)">
					<path id="path578" class="st3" d="M-293.1,66L-293.1,66l1.2,3.2h1.7l-2.2-5.7h-1.4l-2.3,5.7h1.8L-293.1,66z"/>
				</g>
				<g id="g580" transform="translate(594.417,313.0586)">
					<path id="path582" class="st3" d="M-293.1,66c-0.1,0.6-0.4,1-1,1c-0.6,0-0.9-0.4-1-1H-293.1z M-296.9,65.3c0,1.7,1.2,3,2.8,3
						c1.5,0,2.7-0.9,2.7-3.1v-0.4h-3.8c0.1-0.7,0.8-1,1.3-1c0.5,0,1,0.2,1.2,0.5l1.1-1.1c-0.7-0.7-1.5-1-2.4-1
						C-295.5,62.3-296.9,63.4-296.9,65.3"/>
				</g>
				<g id="g584" transform="translate(597.291,315.2451)">
					<path id="path586" class="st3" d="M-293.1,66h1.6v-0.8h0c0.4,0.5,1,0.9,1.6,0.9c0.2,0,0.4,0,0.6-0.1l-0.6-1.7
						c-0.2,0.1-0.4,0.1-0.6,0.1c-0.4,0-0.8-0.2-1.1-0.4v-3.6h-1.6V66z"/>
				</g>
				<g id="g588" transform="translate(575.4893,303.9502)">
					<path id="path590" class="st3" d="M-293.1,66h-2.4v1.5h7l-0.5-1.5h-2.3v-6.3h-1.7V66z"/>
				</g>
				<g id="g592" transform="translate(580.7412,303.2656)">
					<path id="path594" class="st3" d="M-293.1,66h1.6v-0.8h0c0.4,0.5,1,0.9,1.6,0.9c0.2,0,0.4,0,0.6-0.1l-0.6-1.7
						c-0.2,0.1-0.4,0.1-0.6,0.1c-0.4,0-0.8-0.2-1.1-0.4v-3.6h-1.6V66z"/>
				</g>
				<g id="g596" transform="translate(588.3135,299.7666)">
					<path id="path598" class="st3" d="M-293.1,66v0.2c-0.2,0-0.5,0.1-0.7,0.1c-0.8,0-1.1-0.3-1.1-0.7c0-0.3,0.3-0.6,0.8-0.6
						C-293.6,64.9-293.1,65.2-293.1,66 M-296.5,65.6c0,0.9,0.8,1.9,2.5,1.9c0.2,0,0.6,0,1-0.1v0.1c0,0.5-0.4,0.7-0.9,0.7
						c-0.4,0-0.9-0.1-1.3-0.4l-1,1c0.7,0.6,1.6,0.9,2.4,0.9c1.5,0,2.5-0.8,2.5-2.2v-3.6h-1.6v0.5h0c-0.3-0.4-0.8-0.6-1.5-0.6
						C-295.7,63.7-296.5,64.5-296.5,65.6"/>
				</g>
				<g id="g600" transform="translate(591.4229,303.2656)">
					<path id="path602" class="st3" d="M-293.1,66h1.6v-0.6h0c0.4,0.5,1,0.7,1.5,0.7c1.2,0,2-0.8,2-2.1v-3.7h-1.6v3.3
						c0,0.7-0.5,1-0.9,1c-0.4,0-0.8-0.3-1-0.6v-3.7h-1.6V66z"/>
				</g>
				<g id="g604" transform="translate(597.6045,298.3203)">
					<path id="path606" class="st3" d="M-293.1,66l1,1c0.2-0.2,0.7-0.5,1.3-0.5c0.5,0,0.7,0.2,0.7,0.4c0,0.4-0.4,0.4-0.6,0.5
						l-0.7,0.2c-0.8,0.3-1.4,0.8-1.4,1.7c0,0.9,0.8,1.8,2.2,1.8c0.9,0,1.7-0.3,2.3-0.9l-1-1c-0.2,0.2-0.6,0.5-1.2,0.5
						c-0.3,0-0.5-0.1-0.5-0.3c0-0.2,0.1-0.3,0.5-0.4l0.8-0.3c0.8-0.3,1.4-0.7,1.4-1.6c0-1.1-1-1.9-2.3-1.9
						C-291.6,65.1-292.4,65.3-293.1,66"/>
				</g>
				<g id="g608" transform="translate(606.332,298.9482)">
					<path id="path610" class="st3" d="M-293.1,66c0.8,0,1.3,0.6,1.3,1.5c0,0.8-0.5,1.5-1.3,1.5c-0.8,0-1.3-0.7-1.3-1.5
						C-294.4,66.6-293.8,66-293.1,66 M-294.3,62.5h-1.6v7.7h1.6v-0.6h0c0.2,0.3,0.7,0.7,1.6,0.7c1.5,0,2.6-1.2,2.6-2.9
						c0-1.7-1.1-3-2.6-3c-0.9,0-1.3,0.4-1.6,0.7h0V62.5z"/>
				</g>
				<g id="g612" transform="translate(614.2197,300.4512)">
					<path id="path614" class="st3" d="M-293.1,66c0,0.9-0.4,1.5-1.2,1.5c-0.7,0-1.2-0.6-1.2-1.5c0-0.9,0.5-1.5,1.2-1.5
						C-293.5,64.4-293.1,65.1-293.1,66 M-297.2,66c0,1.7,1.2,2.9,2.9,2.9c1.7,0,2.9-1.2,2.9-2.9c0-1.8-1.2-3-2.9-3
						C-296,63-297.2,64.2-297.2,66"/>
				</g>
				<g id="g616" transform="translate(617.1035,303.2656)">
					<path id="path618" class="st3" d="M-293.1,66h1.6v-0.8h0c0.4,0.5,1,0.9,1.6,0.9c0.2,0,0.4,0,0.6-0.1l-0.6-1.7
						c-0.2,0.1-0.4,0.1-0.6,0.1c-0.4,0-0.8-0.2-1.1-0.4v-3.6h-1.6V66z"/>
				</g>
				<g id="g620" transform="translate(622.333,301.8418)">
					<path id="path622" class="st3" d="M-293.1,66h-1v1.4h1v1.9h1.6v-1.9h1.6l-0.5-1.4h-1.1v-4.2h-1.6V66z"/>
				</g>
				<g id="g624" transform="translate(556.2246,304.249)">
					<path id="path626" class="st3" d="M-293.1,66c-0.2-0.1-0.4-0.1-0.6-0.2l-0.4-1.1c0.3,0.1,0.7,0.1,1,0.2c0.4,0.1,0.4,0.1,1,0.3
						v1C-292.7,66.1-292.7,66.1-293.1,66 M-307.7,70h4.1v3.7h-4.1V70z M-302.6,70h5.3l-1.6,3.7h-3.7V70z M-307.9,66
						c-0.6-0.2-1.3-0.4-1.9-0.7v1V70h1v3.7h-1v1.9h5l1,1h2.5l1-1h0.6c0.6,0,1.1-0.3,1.3-0.8l2.1-4.7h2.9l-2-5.4c-0.4,0-0.8,0-1.3,0
						c-0.1,0-0.1,0-0.2,0c-0.3,0-0.5,0.1-0.8,0.1l-0.1,0c-1.5,0.3-3,0.9-4.6,1.3C-304.1,66.6-305.9,66.6-307.9,66 M-293.1,63.8
						c0.4,0.1,0.4,0.1,1,0.3v-1c-0.6-0.2-0.6-0.2-1-0.3c-0.6-0.2-1.2-0.3-1.8-0.3c-0.5,0-1,0-1.6,0c-0.1,0-0.1,0-0.2,0
						c-0.3,0-0.5,0.1-0.8,0.1l-0.1,0c-1.5,0.3-3,0.9-4.6,1.3c-2,0.5-3.8,0.6-5.8-0.1c-0.6-0.2-1.3-0.4-1.9-0.7v1
						c0.7,0.2,1.3,0.5,1.9,0.7c1.5,0.5,2.8,0.5,4.2,0.4c0.5-0.1,1-0.2,1.6-0.3c1.6-0.4,3.3-1.1,5-1.4l0.1,0c0.2,0,0.4,0,0.6-0.1
						c0.1,0,0.1,0,0.2,0C-295.1,63.5-294.3,63.5-293.1,63.8"/>
				</g>
				<g id="g628" transform="translate(696.3945,286.7627)">
					<path id="path630" class="st3" d="M-293.1,66c0.5,0,1,0.3,1,1c0,0.6-0.5,1-1,1h-1.5v-2H-293.1z M-294.6,61.6h-1.7v7.9h3.1
						c1.9,0,2.9-1.1,2.9-2.5c0-0.9-0.4-1.7-1.5-2.2v0l2.2-3.1h-2.1l-1.9,2.8h-1.1V61.6z"/>
				</g>
				<path id="path632" class="st3" d="M408.2,356.2h1.6v-1.7h-1.6V356.2z M408.2,352.6h-1l0.5,1.4h2.1v-5.7h-1.6V352.6z"/>
				<g id="g634" transform="translate(706.6836,284.8447)">
					<path id="path636" class="st3" d="M-293.1,66L-293.1,66l1.2,3.2h1.7l-2.2-5.7h-1.4l-2.3,5.7h1.8L-293.1,66z"/>
				</g>
				<g id="g638" transform="translate(713.8643,285.8877)">
					<path id="path640" class="st3" d="M-293.1,66c-0.1,0.6-0.4,1-1,1c-0.6,0-0.9-0.4-1-1H-293.1z M-296.9,65.3c0,1.7,1.2,3,2.8,3
						c1.5,0,2.7-0.9,2.7-3.1v-0.4h-3.8c0.1-0.7,0.8-1,1.3-1c0.5,0,1,0.2,1.2,0.5l1.1-1.1c-0.7-0.7-1.5-1-2.4-1
						C-295.5,62.3-296.9,63.4-296.9,65.3"/>
				</g>
				<g id="g642" transform="translate(716.7383,288.0752)">
					<path id="path644" class="st3" d="M-293.1,66h1.6v-0.8h0c0.4,0.5,1,0.9,1.6,0.9c0.2,0,0.4,0,0.6-0.1l-0.6-1.7
						c-0.2,0.1-0.4,0.1-0.6,0.1c-0.4,0-0.8-0.2-1.1-0.4v-3.6h-1.6V66z"/>
				</g>
				<g id="g646" transform="translate(682.3955,276.7812)">
					<path id="path648" class="st3" d="M-293.1,66h-2.4v1.5h7l-0.5-1.5h-2.3v-6.3h-1.7V66z"/>
				</g>
				<g id="g650" transform="translate(687.6475,276.0977)">
					<path id="path652" class="st3" d="M-293.1,66h1.6v-0.8h0c0.4,0.5,1,0.9,1.6,0.9c0.2,0,0.4,0,0.6-0.1l-0.6-1.7
						c-0.2,0.1-0.4,0.1-0.6,0.1c-0.4,0-0.8-0.2-1.1-0.4v-3.6h-1.6V66z"/>
				</g>
				<g id="g654" transform="translate(695.2197,272.5986)">
					<path id="path656" class="st3" d="M-293.1,66v0.2c-0.2,0-0.5,0.1-0.7,0.1c-0.8,0-1.1-0.3-1.1-0.7c0-0.3,0.3-0.6,0.8-0.6
						C-293.6,64.9-293.1,65.2-293.1,66 M-296.5,65.6c0,0.9,0.8,1.9,2.5,1.9c0.2,0,0.6,0,1-0.1v0.1c0,0.5-0.4,0.7-0.9,0.7
						c-0.4,0-0.9-0.1-1.3-0.4l-1,1c0.6,0.6,1.6,0.9,2.4,0.9c1.5,0,2.5-0.8,2.5-2.2v-3.6h-1.6v0.5h0c-0.3-0.4-0.8-0.6-1.5-0.6
						C-295.7,63.7-296.5,64.5-296.5,65.6"/>
				</g>
				<g id="g658" transform="translate(698.3291,276.0977)">
					<path id="path660" class="st3" d="M-293.1,66h1.6v-0.6h0c0.4,0.5,1,0.7,1.5,0.7c1.2,0,2-0.8,2-2.1v-3.7h-1.6v3.3
						c0,0.7-0.5,1-0.9,1c-0.4,0-0.8-0.3-1-0.6v-3.7h-1.6V66z"/>
				</g>
				<g id="g662" transform="translate(704.5117,271.1514)">
					<path id="path664" class="st3" d="M-293.1,66l1,1c0.2-0.2,0.7-0.5,1.3-0.5c0.5,0,0.7,0.2,0.7,0.4c0,0.4-0.4,0.4-0.6,0.5
						l-0.7,0.2c-0.8,0.3-1.4,0.8-1.4,1.7c0,0.9,0.8,1.8,2.2,1.8c0.9,0,1.7-0.3,2.3-0.9l-1-1c-0.2,0.2-0.6,0.5-1.2,0.5
						c-0.3,0-0.5-0.1-0.5-0.3c0-0.2,0.1-0.3,0.5-0.4l0.8-0.3c0.8-0.3,1.4-0.7,1.4-1.6c0-1.1-1-1.9-2.3-1.9
						C-291.6,65.1-292.4,65.3-293.1,66"/>
				</g>
				<g id="g666" transform="translate(713.2393,271.7793)">
					<path id="path668" class="st3" d="M-293.1,66c0.8,0,1.3,0.6,1.3,1.5c0,0.8-0.5,1.5-1.3,1.5c-0.8,0-1.3-0.7-1.3-1.5
						C-294.4,66.6-293.8,66-293.1,66 M-294.3,62.5h-1.6v7.7h1.6v-0.6h0c0.2,0.3,0.7,0.7,1.6,0.7c1.5,0,2.6-1.2,2.6-3
						c0-1.7-1.1-3-2.6-3c-0.9,0-1.3,0.4-1.6,0.7h0V62.5z"/>
				</g>
				<g id="g670" transform="translate(721.126,273.2822)">
					<path id="path672" class="st3" d="M-293.1,66c0,0.9-0.4,1.5-1.2,1.5c-0.7,0-1.2-0.6-1.2-1.5c0-0.9,0.5-1.5,1.2-1.5
						C-293.5,64.4-293.1,65.1-293.1,66 M-297.2,66c0,1.7,1.2,3,2.9,3c1.7,0,2.9-1.2,2.9-3c0-1.8-1.2-3-2.9-3
						C-296,63-297.2,64.2-297.2,66"/>
				</g>
				<g id="g674" transform="translate(724.0107,276.0977)">
					<path id="path676" class="st3" d="M-293.1,66h1.6v-0.8h0c0.4,0.5,1,0.9,1.6,0.9c0.2,0,0.4,0,0.6-0.1l-0.6-1.7
						c-0.2,0.1-0.4,0.1-0.6,0.1c-0.4,0-0.8-0.2-1.1-0.4v-3.6h-1.6V66z"/>
				</g>
				<g id="g678" transform="translate(729.2393,274.6729)">
					<path id="path680" class="st3" d="M-293.1,66h-1v1.4h1v1.9h1.6v-1.9h1.6l-0.5-1.4h-1.1v-4.2h-1.6V66z"/>
				</g>
				<g id="g682" transform="translate(704.3604,298.5791)">
					<path id="path684" class="st3" d="M-293.1,66l2-2l12.3,12.3c3.1,3.2,5.1,7.5,5.1,12.3c0,9.6-7.8,17.4-17.4,17.4
						c-9.6,0-17.4-7.8-17.4-17.4c0-4.8,2-9.2,5.1-12.3c0.3-0.3,0.6-0.4,1-0.4c0.8,0,1.4,0.6,1.4,1.4c0,0.4-0.2,0.8-0.4,1
						c-2.6,2.6-4.3,6.3-4.3,10.3c0,8.1,6.6,14.6,14.6,14.6s14.6-6.6,14.6-14.6c0-4-1.6-7.7-4.3-10.3L-293.1,66z"/>
				</g>
				<g id="g686" transform="translate(715.1514,318.2852)">
					<path id="path688" class="st3" d="M-293.1,66c-0.2-0.1-0.4-0.1-0.6-0.2l-0.4-1.1c0.3,0,0.7,0.1,1,0.2c0.4,0.1,0.4,0.1,1,0.3v1
						C-292.7,66.1-292.7,66.1-293.1,66 M-307.7,70h4.1v3.7h-4.1V70z M-302.6,70h5.3l-1.6,3.7h-3.7V70z M-307.9,66
						c-0.6-0.2-1.3-0.4-1.9-0.7v1V70h1v3.7h-1v1.9h5l1,1h2.5l1-1h0.6c0.6,0,1.1-0.3,1.3-0.8l2.1-4.7h2.9l-2-5.4c-0.4,0-0.8,0-1.3,0
						c-0.1,0-0.1,0-0.2,0c-0.3,0-0.5,0.1-0.8,0.1l-0.1,0c-1.5,0.3-3,0.9-4.6,1.3C-304.1,66.6-305.9,66.6-307.9,66 M-293.1,63.8
						c0.4,0.1,0.4,0.1,1,0.3v-1c-0.6-0.2-0.6-0.2-1-0.3c-0.6-0.2-1.2-0.3-1.8-0.3c-0.5,0-1,0-1.6,0c-0.1,0-0.1,0-0.2,0
						c-0.3,0-0.5,0.1-0.8,0.1l-0.1,0c-1.5,0.3-3,0.9-4.6,1.3c-2,0.5-3.8,0.6-5.8-0.1c-0.6-0.2-1.3-0.4-1.9-0.7v1
						c0.7,0.2,1.3,0.5,1.9,0.7c1.5,0.5,2.8,0.5,4.2,0.4c0.5-0.1,1-0.2,1.6-0.3c1.6-0.4,3.3-1.1,5-1.4l0.1,0c0.2,0,0.4,0,0.6-0.1
						c0.1,0,0.1,0,0.2,0C-295.1,63.5-294.3,63.5-293.1,63.8"/>
				</g>
			</g>
		</g>
	</g>
</g>
</svg>
